<?xml version="1.0" encoding="UTF-8" standalone="no"?>
<svg
   xmlns:dc="http://purl.org/dc/elements/1.1/"
   xmlns:cc="http://creativecommons.org/ns#"
   xmlns:rdf="http://www.w3.org/1999/02/22-rdf-syntax-ns#"
   xmlns:svg="http://www.w3.org/2000/svg"
   xmlns="http://www.w3.org/2000/svg"
   xmlns:sodipodi="http://sodipodi.sourceforge.net/DTD/sodipodi-0.dtd"
   xmlns:inkscape="http://www.inkscape.org/namespaces/inkscape"
   version="1.1"
   id="svg2"
   xml:space="preserve"
   width="836.59998"
   height="536.91998"
   viewBox="0 0 836.59998 536.91998"
   sodipodi:docname="3656199.eps"><metadata
     id="metadata8"><rdf:RDF><cc:Work
         rdf:about=""><dc:format>image/svg+xml</dc:format><dc:type
           rdf:resource="http://purl.org/dc/dcmitype/StillImage" /></cc:Work></rdf:RDF></metadata><defs
     id="defs6" /><sodipodi:namedview
     pagecolor="#ffffff"
     bordercolor="#666666"
     borderopacity="1"
     objecttolerance="10"
     gridtolerance="10"
     guidetolerance="10"
     inkscape:pageopacity="0"
     inkscape:pageshadow="2"
     inkscape:window-width="640"
     inkscape:window-height="480"
     id="namedview4" /><g
     id="g10"
     inkscape:groupmode="layer"
     inkscape:label="ink_ext_XXXXXX"
     transform="matrix(1.3333333,0,0,-1.3333333,0,536.92)"><g
       id="g12"
       transform="scale(0.1)"><path
         d="m 6037.48,1167.23 c -22.6,106.5 -73.67,207.05 -144.7,289.38 -81.53,94.47 -185.79,147.86 -296.44,201.19 -123.32,59.45 -228.39,136.68 -300.59,255.4 -72.08,118.49 -96.33,255.24 -105.25,391.76 -15.78,241.45 4.32,487.1 -108.14,709.81 -95.29,188.71 -260.42,342.4 -455.88,423.04 -245.08,101.12 -511.14,58.92 -768.17,53.87 -138.16,-2.71 -278.4,6.2 -408.69,55.96 -124.33,47.49 -233.92,124.72 -344.33,197.45 -211.53,139.35 -435.92,231.75 -692.63,234.19 -235.08,2.22 -499.14,-63.85 -674.47,-228.44 C 1550.03,3574.2 1488.98,3286.29 1444.24,3042.96 1353.35,2548.62 1332.56,1967.34 901.352,1630.49 739.609,1504.14 540.367,1412.73 417.156,1242.95 275.113,1047.23 310.281,792.059 434.543,596.871 c 64.996,-102.09 149.719,-188.172 240.266,-267.57 -11.094,-6.84 -8.606,-27.949 7.668,-27.84 1232.553,8.469 2456.203,-19.961 3688.723,-8.852 279.98,2.532 549.46,-16.558 828.83,4.493 217.22,16.367 467.18,115.187 635.16,263.089 168.67,148.52 249,386.918 202.29,607.039"
         style="fill:#f6e0c8;fill-opacity:1;fill-rule:nonzero;stroke:none"
         id="path14" /><path
         d="m 3773.88,3687.79 c 87.24,-0.63 179.5,35.28 214.74,120.86 29.4,71.42 -9.85,164.85 -84.1,179.12 -82.33,40.4 -183.54,54.39 -269.38,18.6 -78.08,-32.56 -135.65,-120.41 -97.57,-203.94 39.94,-87.62 148.36,-114 236.31,-114.64"
         style="fill:#f6e0c8;fill-opacity:1;fill-rule:nonzero;stroke:none"
         id="path16" /><path
         d="m 5409.05,2184.74 c 5.33,-40.3 22.07,-79.76 50.76,-114.14 70.99,-85.11 229.36,-146.89 318.09,-53.05 86.41,91.38 -21.75,235.62 -94.02,301 -56.91,51.48 -141.8,76.08 -208.4,46.02 -2.39,1.41 -5.42,1.53 -7.85,-1.08 -1.61,-1.74 -3,-3.6 -4.55,-5.37 -17.38,-10.06 -33.23,-24.2 -46.57,-43.13 -2.33,-3.3 -2.68,-6.81 -1.85,-10.07 -20.17,-33.71 -18.59,-77.34 -5.61,-120.18"
         style="fill:#f6e0c8;fill-opacity:1;fill-rule:nonzero;stroke:none"
         id="path18" /><path
         d="m 351.047,1739.89 c 3.738,-28.33 15.516,-56.07 35.68,-80.24 49.918,-59.85 161.269,-103.28 223.652,-37.31 60.75,64.26 -15.289,165.67 -66.106,211.64 -40.003,36.2 -99.695,53.49 -146.527,32.35 -1.676,0.99 -3.808,1.08 -5.512,-0.75 -1.136,-1.23 -2.117,-2.53 -3.211,-3.78 -12.218,-7.07 -23.363,-17.03 -32.738,-30.33 -1.637,-2.31 -1.883,-4.78 -1.305,-7.08 -14.171,-23.71 -13.07,-54.38 -3.933,-84.5"
         style="fill:#f6e0c8;fill-opacity:1;fill-rule:nonzero;stroke:none"
         id="path20" /><path
         d="m 20,277.102 h 6233.86 c 11.04,0 20,8.949 20,20 0,11.039 -8.96,20 -20,20 H 20 c -11.04297,0 -20,-8.961 -20,-20 0,-11.051 8.95703,-20 20,-20"
         style="fill:#f8a049;fill-opacity:1;fill-rule:nonzero;stroke:none"
         id="path22" /><path
         d="M 3409.47,313.078 H 1923.83 c -63.15,0 -114.35,51.192 -114.35,114.344 V 3394.11 c 0,63.15 51.2,114.35 114.35,114.35 h 1485.64 c 63.16,0 114.35,-51.2 114.35,-114.35 V 427.422 c 0,-63.152 -51.19,-114.344 -114.35,-114.344"
         style="fill:#343939;fill-opacity:1;fill-rule:nonzero;stroke:none"
         id="path24" /><path
         d="M 3409.83,3238.22 V 570.59 c 0,-55.692 -45.25,-100.93 -100.94,-100.93 H 2024.45 c -55.8,0 -100.94,45.238 -100.94,100.93 v 2667.63 c 0,55.78 45.14,100.93 100.94,100.93 h 1284.44 c 55.69,0 100.94,-45.15 100.94,-100.93"
         style="fill:#ffffff;fill-opacity:1;fill-rule:nonzero;stroke:none"
         id="path26" /><path
         d="m 2433.64,3339.15 v -779.1 c 0,-40.16 -32.59,-72.76 -72.75,-72.76 h -437.38 v 750.93 c 0,55.78 45.14,100.93 100.94,100.93 h 409.19"
         style="fill:#e4efe6;fill-opacity:1;fill-rule:nonzero;stroke:none"
         id="path28" /><path
         d="M 2936.5,1494.15 V 785.98 H 1923.51 v 411.5 c 194.96,0 361.56,123.65 425.5,296.67 h 587.49"
         style="fill:#e4efe6;fill-opacity:1;fill-rule:nonzero;stroke:none"
         id="path30" /><path
         d="m 2508,2715.73 v -167.14 c 0,-72.62 -58.87,-131.49 -131.49,-131.49 v -498.84 h 328.22 v 388.9 109.94 298.63 H 2508"
         style="fill:#7ed2a5;fill-opacity:1;fill-rule:nonzero;stroke:none"
         id="path32" /><path
         d="m 3409.83,786 h -391.1 v 708.17 h 391.1 V 786"
         style="fill:#e4efe6;fill-opacity:1;fill-rule:nonzero;stroke:none"
         id="path34" /><path
         d="M 2704.63,709.102 C 2555.67,648.328 2530.55,477.809 2529.5,469.66 h -505.05 c -55.8,0 -100.94,45.238 -100.94,100.93 v 138.512 h 781.12"
         style="fill:#7ed2a5;fill-opacity:1;fill-rule:nonzero;stroke:none"
         id="path36" /><path
         d="M 3045.61,2770.41 H 2508 v 568.72 h 537.61 v -568.72"
         style="fill:#e4efe6;fill-opacity:1;fill-rule:nonzero;stroke:none"
         id="path38" /><path
         d="m 3409.79,1920.09 h -637.22 v 795.64 h 637.22 v -795.64"
         style="fill:#e4efe6;fill-opacity:1;fill-rule:nonzero;stroke:none"
         id="path40" /><path
         d="M 3409.79,1850.4 H 2376.51 v -288.37 h 1033.28 v 288.37"
         style="fill:#e4efe6;fill-opacity:1;fill-rule:nonzero;stroke:none"
         id="path42" /><path
         d="m 3409.83,3238.22 v -467.77 h -298.11 v 568.7 h 197.17 c 55.69,0 100.94,-45.15 100.94,-100.93"
         style="fill:#e4efe6;fill-opacity:1;fill-rule:nonzero;stroke:none"
         id="path44" /><path
         d="m 2297.47,2416.76 v -735.01 c 0,-213.76 -166.94,-388.19 -373.96,-393.15 v 1128.16 h 373.96"
         style="fill:#e4efe6;fill-opacity:1;fill-rule:nonzero;stroke:none"
         id="path46" /><path
         d="m 2940.76,709.141 c -236.15,0 -306.06,-99.219 -364.49,-239.481 h 732.62 c 55.69,0 100.94,45.238 100.94,100.93 v 138.551 h -469.07"
         style="fill:#e4efe6;fill-opacity:1;fill-rule:nonzero;stroke:none"
         id="path48" /><path
         d="m 2691,3430.36 c 0,-13.45 -10.9,-24.34 -24.35,-24.34 -13.45,0 -24.34,10.89 -24.34,24.34 0,13.45 10.89,24.35 24.34,24.35 13.45,0 24.35,-10.9 24.35,-24.35"
         style="fill:#ffffff;fill-opacity:1;fill-rule:nonzero;stroke:none"
         id="path50" /><path
         d="m 4265.37,1968.4 c -1.4,47.73 3.46,106.16 -4.82,152.71 -10.07,56.56 -57.9,41.81 -94.62,42.25 -25.76,0.3 -51.52,0.14 -77.29,-0.25 -111.92,1.34 -224.11,-6.63 -335.15,-22.38 -34.14,-4.85 -99.27,2.03 -123.53,-38.31 -13.62,-22.66 -11.83,-55.89 -12.84,-82.81 -1.93,-51.33 -1.26,-102.3 -0.56,-153.02 0.16,-11.6 9.61,-22.06 18.66,-18.09 3.21,1.41 6.49,2.64 9.74,3.95 3.78,-21.65 9.91,-41.03 27.92,-47.61 36.76,-13.42 88.94,1.17 127.06,1.94 51.12,1.03 102.24,1.2 153.35,0.5 102.18,-1.39 204.32,-5.46 306.13,-12.28 5.21,-0.35 10.85,6.3 10.65,13.12 l -4.7,160.28"
         style="fill:#ffffff;fill-opacity:1;fill-rule:nonzero;stroke:none"
         id="path52" /><path
         d="m 3762.85,2063.68 h -37.56 v 22.12 h 102.29 v -22.12 h -37.56 v -95.26 h -27.17 v 95.26"
         style="fill:#040606;fill-opacity:1;fill-rule:nonzero;stroke:none"
         id="path54" /><path
         d="m 3916.43,2014.2 -18.63,44.94 -18.61,-44.94 z m 8.55,-20.63 h -54.51 l -10.39,-25.15 h -27.83 l 52.31,117.38 h 26.83 l 52.5,-117.38 h -28.52 l -10.39,25.15"
         style="fill:#040606;fill-opacity:1;fill-rule:nonzero;stroke:none"
         id="path56" /><path
         d="m 4055.39,1968.42 -28.34,40.75 -27.83,-40.75 h -31.2 l 43.44,59.7 -41.26,57.68 h 30.87 l 26.99,-38.06 26.49,38.06 h 29.36 l -40.92,-56.67 43.76,-60.71 h -31.36"
         style="fill:#040606;fill-opacity:1;fill-rule:nonzero;stroke:none"
         id="path58" /><path
         d="m 4108.84,2085.8 h 27.17 v -117.38 h -27.17 v 117.38"
         style="fill:#040606;fill-opacity:1;fill-rule:nonzero;stroke:none"
         id="path60" /><path
         d="m 6161.72,554.762 c 0,0 127.42,620.418 -463.38,733.038 -590.8,112.62 -590.8,112.62 -590.8,112.62 0,0 -405.45,451.79 -683.48,474.96 -278.02,23.16 -1112.1,92.67 -1343.78,-69.51 -231.69,-162.18 -393.87,-518.07 -393.87,-518.07 0,0 -556.05,-19.39 -648.73,-190.87 -92.67,-171.469 -69.5,-542.168 -69.5,-542.168 h 4193.54"
         style="fill:#fab519;fill-opacity:1;fill-rule:nonzero;stroke:none"
         id="path62" /><path
         d="m 4995.9,1277.08 c 0,0 -376.46,415.57 -631.41,441.06 -254.94,25.5 -1050.36,66.29 -1162.53,-20.4 -112.17,-86.68 -311.03,-412.99 -311.03,-412.99 l 2104.97,-7.67"
         style="fill:#070808;fill-opacity:1;fill-rule:nonzero;stroke:none"
         id="path64" /><path
         d="m 3980.05,1159.19 h 130.52 c 20.22,0 36.63,16.4 36.63,36.63 0,20.22 -16.41,36.62 -36.63,36.62 h -130.52 c -20.23,0 -36.63,-16.4 -36.63,-36.62 0,-20.23 16.4,-36.63 36.63,-36.63"
         style="fill:#070808;fill-opacity:1;fill-rule:nonzero;stroke:none"
         id="path66" /><path
         d="m 2905.29,1159.19 h 130.51 c 20.23,0 36.63,16.4 36.63,36.63 0,20.22 -16.4,36.62 -36.63,36.62 h -130.51 c -20.24,0 -36.64,-16.4 -36.64,-36.62 0,-20.23 16.4,-36.63 36.64,-36.63"
         style="fill:#070808;fill-opacity:1;fill-rule:nonzero;stroke:none"
         id="path68" /><path
         d="m 1983.29,438.059 h 4209.65 c 45.03,0 81.52,36.492 81.52,81.519 0,45.024 -36.49,81.512 -81.52,81.512 H 1983.29 c -45.03,0 -81.53,-36.488 -81.53,-81.512 0,-45.027 36.5,-81.519 81.53,-81.519"
         style="fill:#070808;fill-opacity:1;fill-rule:nonzero;stroke:none"
         id="path70" /><path
         d="m 2037.68,1096.93 c 12.72,23.54 34.39,44.1 61.93,62.26 h 140.16 c 48.53,0 87.87,-39.35 87.87,-87.88 0,-48.53 -39.34,-87.869 -87.87,-87.869 h -242.86 c 10.14,42.309 23.43,81.389 40.77,113.489"
         style="fill:#ffffff;fill-opacity:1;fill-rule:nonzero;stroke:none"
         id="path72" /><path
         d="m 5597.57,1123.91 c 51.3,-57.5 315.69,-25.9 432.2,-8.8 -13,14.29 -27,28.09 -42.31,41.39 -68.89,59.7 -162.5,107.2 -289.1,131.3 -9.39,1.81 -18.59,3.51 -27.6,5.3 -23.3,4.41 -45.59,8.71 -67.1,12.7 -23.49,-52.1 -48.99,-134.09 -6.09,-181.89"
         style="fill:#ffffff;fill-opacity:1;fill-rule:nonzero;stroke:none"
         id="path74" /><path
         d="m 5597.57,1123.91 c 51.3,-57.5 315.69,-25.9 432.2,-8.8 -13,14.29 -27,28.09 -42.31,41.39 -226.2,-31.6 -295.9,79.01 -316.7,136.6 -23.3,4.41 -45.59,8.71 -67.1,12.7 -23.49,-52.1 -48.99,-134.09 -6.09,-181.89"
         style="fill:#e4efe6;fill-opacity:1;fill-rule:nonzero;stroke:none"
         id="path76" /><path
         d="m 3853.36,1198.39 h 90.06 v 583.51 h -90.06 v -583.51"
         style="fill:#fab519;fill-opacity:1;fill-rule:nonzero;stroke:none"
         id="path78" /><path
         d="M 3887.8,1198.39 V 724.18 c 0,-5.52 4.48,-10 10,-10 5.53,0 10,4.48 10,10 v 474.21 c 0,5.52 -4.47,10 -10,10 -5.52,0 -10,-4.48 -10,-10"
         style="fill:#f6872d;fill-opacity:1;fill-rule:nonzero;stroke:none"
         id="path80" /><path
         d="m 4398.62,1785.3 0.88,-0.23 c 19.27,-5.3 351.57,-100.95 676.63,-485.72 3.57,-4.22 9.88,-4.75 14.09,-1.19 4.22,3.57 4.75,9.87 1.19,14.09 -339.04,401.29 -686.44,492.07 -687.75,492.41 -5.34,1.39 -10.8,-1.82 -12.19,-7.16 -1.39,-5.34 1.81,-10.81 7.15,-12.2"
         style="fill:#f6872d;fill-opacity:1;fill-rule:nonzero;stroke:none"
         id="path82" /><path
         d="M 4775.7,420.27 C 4775.7,188.16 4963.87,0 5195.98,0 c 232.11,0 420.27,188.16 420.27,420.27 0,232.109 -188.16,420.281 -420.27,420.281 -232.11,0 -420.28,-188.172 -420.28,-420.281"
         style="fill:#070808;fill-opacity:1;fill-rule:nonzero;stroke:none"
         id="path84" /><path
         d="m 5005.02,420.27 c 0,-105.469 85.5,-190.95 190.96,-190.95 105.47,0 190.97,85.481 190.97,190.95 0,105.468 -85.5,190.96 -190.97,190.96 -105.46,0 -190.96,-85.492 -190.96,-190.96"
         style="fill:#ffffff;fill-opacity:1;fill-rule:nonzero;stroke:none"
         id="path86" /><path
         d="M 2488.38,420.27 C 2488.38,188.16 2676.54,0 2908.65,0 c 232.11,0 420.28,188.16 420.28,420.27 0,232.109 -188.17,420.281 -420.28,420.281 -232.11,0 -420.27,-188.172 -420.27,-420.281"
         style="fill:#070808;fill-opacity:1;fill-rule:nonzero;stroke:none"
         id="path88" /><path
         d="m 2717.69,420.27 c 0,-105.469 85.5,-190.95 190.96,-190.95 105.47,0 190.96,85.481 190.96,190.95 0,105.468 -85.49,190.96 -190.96,190.96 -105.46,0 -190.96,-85.492 -190.96,-190.96"
         style="fill:#ffffff;fill-opacity:1;fill-rule:nonzero;stroke:none"
         id="path90" /><path
         d="m 931.871,352.211 c -3.711,6.078 -10.242,6.527 -15.273,3.969 -1.942,0 -4.063,-0.539 -6.532,-2.121 -31.601,-20.571 -96.214,-19.418 -134.082,-11.571 l -10.597,-4.5 C 715.074,323.43 665.203,307.27 616.301,288.391 c -30.453,-11.75 -69.379,-23.582 -90.918,-49.961 -56.32,-69.211 53.316,-64.969 93.828,-67.09 57.113,-3.012 114.398,-3.629 171.602,-1.86 40.695,1.239 98.949,-5.468 137.085,10.25 65.938,27.18 29.043,130.098 3.973,172.481"
         style="fill:#050707;fill-opacity:1;fill-rule:nonzero;stroke:none"
         id="path92" /><path
         d="m 930.008,354 c -14.188,39.59 -9.024,87.23 -5.973,128.379 0.078,1.082 -0.168,1.91 -0.531,2.641 2.812,3.07 0.098,9.21 -4.383,9.14 -17.621,-0.25 -34.641,-6.16 -52.078,-8.781 -21.664,-3.25 -43.383,-5.16 -65.238,-6.238 -3.34,1.89 -8.508,0.488 -8.293,-4.442 1.968,-46.121 -5.645,-90.41 -21.367,-133.711 -0.762,-2.097 -0.141,-3.726 1.031,-4.816 0.449,-0.723 1.062,-1.371 2.054,-1.793 26.958,-11.438 48.583,-21.649 78.938,-19.07 24.906,2.121 51.449,11.472 69.816,28.711 1.129,1.07 1.633,2.23 1.86,3.402 2.933,0.558 5.457,2.976 4.164,6.578"
         style="fill:#f9aa91;fill-opacity:1;fill-rule:nonzero;stroke:none"
         id="path94" /><path
         d="m 935.027,513.18 c -32.855,27.898 -91.429,14.941 -132.789,10.922 -1.129,0.457 -2.429,0.386 -3.808,-0.332 -2.047,-0.18 -4.098,-0.348 -6.039,-0.469 -8.246,-0.481 -11.051,-7.492 -9.258,-13.121 -12.281,-14.559 -17.399,-33.192 5.012,-44.758 34.203,-17.652 107.793,-18.551 141.613,-2.012 22.676,11.078 24.082,33.801 5.269,49.77"
         style="fill:#f57564;fill-opacity:1;fill-rule:nonzero;stroke:none"
         id="path96" /><path
         d="m 1039.8,1726.97 c -10.09,-1.19 -20.2,-2.33 -30.32,-3.47 -1.19,9.85 -17.089,12.93 -18.691,1.94 -0.199,-1.38 -0.379,-2.76 -0.578,-4.14 -99.824,-11.19 -200.434,-21.76 -299.027,-40.02 -0.18,7.03 -11.282,7.01 -11.02,-0.07 l 0.059,-1.95 c -3.106,-0.6 -6.231,-1.11 -9.332,-1.72 -3.051,-0.6 -2.36,-5.54 0.73,-5.41 2.938,0.11 5.875,0.32 8.813,0.45 6.996,-195.23 9.214,-390.83 14.476,-586.15 2.668,-99.129 5.574,-198.25 8.012,-297.391 1.562,-63.527 1.086,-131.219 24.875,-191.129 8.277,-35.68 20.414,-69.601 50.301,-93.738 28.75,-23.223 72.593,-27.121 110.039,-17.031 39.234,2.488 75.004,23.988 93.121,71.898 24.142,63.832 5.953,138.422 -1.106,203.652 -10.39,96.09 -16.922,192.618 -19.48,289.229 -5.77,217.61 6.715,438.96 46.028,653.4 11.04,1.35 22.08,2.7 33.1,4 11.15,1.3 11.28,18.97 0,17.65"
         style="fill:#f14f35;fill-opacity:1;fill-rule:nonzero;stroke:none"
         id="path98" /><path
         d="m 804.207,561.129 c -21.336,67.973 -32.062,138.031 -38.824,208.832 -7.035,73.68 -12.543,147.539 -17.117,221.41 -9.133,147.339 -13.235,294.989 -12.297,442.609 0.539,84.06 4.133,168.01 5.359,252.03 0.027,1.8 -2.625,1.75 -2.758,0 -5.621,-74.26 -6.675,-149.08 -7.507,-223.52 -0.84,-74.54 -0.391,-149.09 1.328,-223.61 3.445,-149.67 11.886,-299.239 26.207,-448.259 7.461,-77.652 15.769,-156.492 40.16,-230.992 1.121,-3.438 6.547,-1.988 5.449,1.5"
         style="fill:#f57564;fill-opacity:1;fill-rule:nonzero;stroke:none"
         id="path100" /><path
         d="m 1092.46,179.73 c 38.14,-15.718 96.39,-9.011 137.09,-10.25 57.2,-1.769 114.49,-1.152 171.6,1.86 40.51,2.121 150.15,-2.121 93.83,67.09 -21.54,26.379 -60.47,38.211 -90.92,49.961 -48.9,18.879 -98.77,35.039 -149.09,49.597 l -10.59,4.5 c -37.87,-7.847 -102.48,-9 -134.09,11.571 -2.47,1.582 -4.58,2.121 -6.53,2.121 -5.03,2.558 -11.56,2.109 -15.27,-3.969 -25.07,-42.383 -61.96,-145.301 3.97,-172.481"
         style="fill:#050707;fill-opacity:1;fill-rule:nonzero;stroke:none"
         id="path102" /><path
         d="m 1094.52,347.422 c 0.22,-1.172 0.73,-2.332 1.85,-3.402 18.37,-17.239 44.92,-26.59 69.82,-28.711 30.36,-2.579 51.98,7.632 78.94,19.07 0.99,0.422 1.61,1.07 2.05,1.793 1.18,1.09 1.8,2.719 1.03,4.816 -15.72,43.301 -23.33,87.59 -21.36,133.711 0.21,4.93 -4.96,6.332 -8.29,4.442 -21.86,1.078 -43.58,2.988 -65.24,6.238 -17.44,2.621 -34.46,8.531 -52.08,8.781 -4.48,0.07 -7.2,-6.07 -4.38,-9.14 -0.37,-0.731 -0.62,-1.559 -0.53,-2.641 3.05,-41.149 8.21,-88.789 -5.98,-128.379 -1.29,-3.602 1.23,-6.02 4.17,-6.578"
         style="fill:#f9aa91;fill-opacity:1;fill-rule:nonzero;stroke:none"
         id="path104" /><path
         d="m 1090.6,463.41 c 33.82,-16.539 107.41,-15.64 141.61,2.012 22.42,11.566 17.3,30.199 5.01,44.758 1.8,5.629 -1,12.64 -9.25,13.121 -1.94,0.121 -3.99,0.289 -6.04,0.469 -1.38,0.718 -2.68,0.789 -3.81,0.332 -41.36,4.019 -99.92,16.976 -132.79,-10.922 -18.81,-15.969 -17.4,-38.692 5.27,-49.77"
         style="fill:#f57564;fill-opacity:1;fill-rule:nonzero;stroke:none"
         id="path106" /><path
         d="m 980.559,1726.97 c 10.086,-1.19 20.201,-2.33 30.321,-3.47 1.19,9.85 17.09,12.93 18.69,1.94 0.2,-1.38 0.38,-2.76 0.58,-4.14 99.82,-11.19 200.43,40.04 299.03,21.77 0.18,7.03 11.28,7.01 11.02,-0.06 l -0.06,-1.96 c 3.1,-0.59 6.23,-1.11 9.33,-1.71 3.05,-0.61 2.36,-5.55 -0.73,-5.42 -2.94,0.11 -5.88,0.32 -8.81,0.45 -7,-195.23 -9.22,-452.62 -14.48,-647.94 -2.67,-99.129 -5.58,-198.25 -8.01,-297.391 -1.56,-63.527 -1.09,-131.219 -24.87,-191.129 -8.28,-35.68 -20.42,-69.601 -50.31,-93.738 -28.75,-23.223 -72.59,-27.121 -110.04,-17.031 -39.23,2.488 -75,23.988 -93.12,71.898 -24.14,63.832 -5.95,138.422 1.11,203.652 10.39,96.09 16.92,192.618 19.48,289.229 5.77,217.61 -6.71,438.96 -46.03,653.4 -11.04,1.35 -22.074,2.7 -33.101,4 -11.149,1.3 -11.282,18.97 0,17.65"
         style="fill:#f14f35;fill-opacity:1;fill-rule:nonzero;stroke:none"
         id="path108" /><path
         d="m 1290.35,1736.13 c -0.15,1.76 -2.93,1.76 -2.76,0 15.88,-158.91 6.03,-319.94 -1.33,-479.07 -7.31,-158.19 -13.5,-316.47 -22.01,-474.611 -4.7,-87.461 -12.71,-175.187 -36.7,-259.738 -0.83,-2.91 3.69,-4.152 4.52,-1.25 20.65,72.758 29.58,148.019 34.62,223.301 5.28,78.816 7.94,157.859 11.51,236.769 7.26,160.359 16.76,320.809 20.41,481.299 2.07,91.33 -0.2,182.3 -8.26,273.3"
         style="fill:#f57564;fill-opacity:1;fill-rule:nonzero;stroke:none"
         id="path110" /><path
         d="m 1351.27,3262.13 c -7.04,26.75 -16.83,54.07 -38.32,72.6 -1.14,0.98 -2.62,0.04 -2.66,-1.11 -100.28,4.63 -200.97,2.77 -301.24,-1.23 -101.284,-4.03 -202.464,-11.31 -303.261,-22.06 -4.551,-0.48 -4.605,-7.67 0,-7.19 l 0.859,0.09 c 22.762,-53.91 42.442,-108.77 57.348,-165.4 7.258,-27.56 13.949,-55.2 19.227,-83.22 2.57,-13.61 4.886,-27.28 6.933,-40.98 2.239,-14.93 2.492,-31.11 6.91,-45.52 l 0.426,-0.56 -2.203,-0.23 c -2.234,-0.2 -1.851,-3.41 0.414,-3.07 45.035,6.83 91.5,9.02 136.887,12.88 42.57,3.61 85.19,6.62 127.83,9.03 86.93,4.89 174.03,7.31 261.09,7.51 1.45,-0.82 3.32,-0.68 4.29,1.3 26.94,54.64 39.44,116.12 38.08,176.91 -0.68,30.4 -4.86,60.83 -12.61,90.25"
         style="fill:#d9422c;fill-opacity:1;fill-rule:nonzero;stroke:none"
         id="path112" /><path
         d="m 859.465,3219.94 c -41.801,62.55 -124.981,114.07 -200.918,90.15 0.078,0.96 -0.606,2.03 -1.836,1.73 -79.945,-19.37 -133.52,-90.7 -144.711,-170.16 -5.695,-40.43 -2.59,-84.55 13.613,-122.39 16.446,-38.4 46.965,-60.63 86.606,-71.52 45.476,-12.49 93.793,-12.08 139.859,-3.01 41.527,8.17 80.656,24.06 107.641,57.95 50.547,63.5 43.183,152.25 -0.254,217.25"
         style="fill:#f14f35;fill-opacity:1;fill-rule:nonzero;stroke:none"
         id="path114" /><path
         d="m 763.996,3216.82 c -24.68,16.88 -57.18,23.21 -86.039,14.55 -31.258,-9.38 -56.148,-36.71 -68.102,-66.42 -12.089,-30.03 -9.429,-68.24 15.805,-91.03 22.891,-20.68 59.59,-22.82 83.156,-2.13 21.836,19.17 22.188,57.55 -4.972,72.59 -24.731,13.7 -57.715,-10.35 -50.129,-38.17 0.523,-1.95 3.465,-1.13 3.012,0.83 -3.668,15.73 7.519,31.07 22.695,35.26 14.23,3.93 27.98,-4.54 34.641,-16.94 14.41,-26.86 -5.528,-54.73 -32.934,-60.9 -32.25,-7.26 -61.859,16.83 -69.316,47.26 -7.247,29.58 4.98,60.27 24.171,82.71 17.391,20.34 41.059,33.66 68.204,33.61 25.957,-0.05 51.976,-11.12 69.863,-29.97 38.015,-40.05 34.906,-104.51 3.676,-147.32 -17.391,-23.84 -42.571,-42.13 -70.102,-52.52 -27.621,-10.43 -62.867,-13.77 -85.937,8.06 -5.012,4.74 -12.68,-3.11 -7.516,-7.51 51.891,-44.16 133.062,-2.83 168.461,43.23 39.953,51.98 38.883,135.46 -18.637,174.81"
         style="fill:#f57564;fill-opacity:1;fill-rule:nonzero;stroke:none"
         id="path116" /><path
         d="m 1396.98,2420.44 c -1.62,149.11 -15.29,297.87 -39.8,444.95 -0.55,3.31 -1.16,6.62 -1.75,9.93 0.03,2.06 0.09,4.12 0.1,6.18 5.37,22.3 2.16,45.17 -6.91,66.02 -2.99,10.19 -7.07,19.84 -12.43,28.52 l -0.53,0.8 c -9.9,15.68 -23.94,28.17 -43.19,34.95 -45.4,28.16 -103.38,31.69 -155.55,31.44 -75.45,-0.36 -150.975,-3.32 -226.346,-6.7 -68.742,-3.08 -139.941,-3.46 -207.441,-18.13 -57.981,-12.6 -109.719,-40.6 -146.387,-87.93 -33.988,-43.86 -53.359,-97.38 -66.234,-150.85 -15.293,-63.51 -22.903,-129.12 -29.774,-194 -8.05,-76.01 -12.793,-152.37 -14.242,-228.79 -1.453,-76.43 0.399,-152.92 5.567,-229.19 4.73,-69.87 10.054,-141.1 23.324,-209.96 11.015,-57.18 36.359,-109.54 91.758,-134.63 54.148,-24.54 116.203,-22.13 174.273,-22.03 75.434,0.13 150.875,0.27 226.309,0.4 67.703,0.12 138.183,-3.76 204.243,13.87 54.44,14.53 100.83,46.44 133.82,92.03 31.08,42.96 49.28,94.18 61.27,145.42 13.8,59 19.03,119.57 23.23,179.88 5.29,75.81 7.52,151.83 6.69,227.82"
         style="fill:#481b14;fill-opacity:1;fill-rule:nonzero;stroke:none"
         id="path118" /><path
         d="m 630.188,2898.47 c -120.196,-166.75 -145.61,-383.31 -145.426,-583.68 0.008,-7.38 10.527,-7.06 11.25,0 20.574,201.55 23.687,405.12 144.972,577.37 4.653,6.61 -6.144,12.76 -10.796,6.31"
         style="fill:#742f21;fill-opacity:1;fill-rule:nonzero;stroke:none"
         id="path120" /><path
         d="m 504.438,2109.8 c 0.027,8.17 -11.79,7.88 -12.5,0 -6.571,-72.58 -8.442,-144.91 41.589,-203.04 9.723,-11.3 26.016,5.11 16.352,16.35 -45.066,52.36 -45.672,121.23 -45.441,186.69"
         style="fill:#742f21;fill-opacity:1;fill-rule:nonzero;stroke:none"
         id="path122" /><path
         d="m 630.188,2901.97 c -120.196,-166.76 -145.61,-383.31 -145.426,-583.68 0.008,-7.38 10.527,-7.07 11.25,0 20.574,201.55 23.687,405.12 144.972,577.37 4.653,6.61 -6.144,12.76 -10.796,6.31"
         style="fill:#742f21;fill-opacity:1;fill-rule:nonzero;stroke:none"
         id="path124" /><path
         d="m 630.188,2898.47 c -120.196,-166.75 -145.61,-383.31 -145.426,-583.68 0.008,-7.38 10.527,-7.06 11.25,0 20.574,201.55 23.687,405.12 144.972,577.37 4.653,6.61 -6.144,12.76 -10.796,6.31"
         style="fill:#742f21;fill-opacity:1;fill-rule:nonzero;stroke:none"
         id="path126" /><path
         d="m 504.438,2109.8 c 0.027,8.17 -11.79,7.88 -12.5,0 -6.571,-72.58 -8.442,-144.91 41.589,-203.04 9.723,-11.3 26.016,5.11 16.352,16.35 -45.066,52.36 -45.672,121.23 -45.441,186.69"
         style="fill:#742f21;fill-opacity:1;fill-rule:nonzero;stroke:none"
         id="path128" /><path
         d="m 504.438,2113.3 c 0.027,8.16 -11.79,7.89 -12.5,0 -6.571,-72.59 -8.442,-144.91 41.589,-203.05 9.723,-11.3 26.016,5.13 16.352,16.36 -45.066,52.36 -45.672,121.23 -45.441,186.69"
         style="fill:#742f21;fill-opacity:1;fill-rule:nonzero;stroke:none"
         id="path130" /><path
         d="m 1439.56,1245.63 c -0.89,0.63 -1.83,1.18 -2.74,1.77 2.42,51.35 0.35,102.78 -7.01,153.67 -6.35,43.89 -17.52,91.3 -53.59,120.67 -29.95,24.37 -68.86,26.25 -101.89,6.77 -36.8,-21.7 -56.54,-60.91 -63.18,-102 -9.24,-57.17 -1.31,-118.42 5.95,-175.42 l -1.33,-0.7 c -0.91,-0.28 -3.09,-0.79 -3.04,0.71 0.03,1.12 -1.82,1.42 -2,0.28 -0.43,-2.92 2.2,-3.97 4.73,-3.76 4.27,0.34 8.04,3.76 11.51,5.96 9.76,6.17 19.41,12.34 28.82,19.02 3.49,2.47 0.31,8.11 -3.15,6.08 -3.04,35.76 -8.06,72.05 -7.4,107.93 0.57,31.41 8,66.75 32.59,88.49 23.34,20.63 61.53,25.97 83.53,0.55 19.81,-22.89 20.41,-57.04 21.86,-85.64 2.07,-40.75 2.75,-81.55 2.37,-122.35 -1.21,0.2 -2.4,0.46 -3.62,0.64 -1.93,0.28 -2.83,-2.62 -0.83,-3.02 1.51,-0.3 2.96,-0.83 4.46,-1.18 -0.01,-1.15 0.02,-2.28 0.01,-3.44 -0.07,-4.92 7.58,-4.92 7.65,0 l 0.01,1.39 c 7.05,-2.1 13.99,-4.55 20.63,-7.75 5.06,-2.45 9.97,-5.2 14.68,-8.26 l 0.67,-0.46 c -0.09,-1.92 -0.07,-3.83 -0.17,-5.75 -0.26,-4.82 7.23,-4.8 7.5,0 l 0.02,0.55 c 1.69,-1.35 3.34,-2.57 5.66,-2.05 l 1.5,1.95 c -0.1,2.72 -2.15,3.93 -4.2,5.35"
         style="fill:#93383e;fill-opacity:1;fill-rule:nonzero;stroke:none"
         id="path132" /><path
         d="m 1547.23,1204.54 c -26.14,58.69 -77.09,96.89 -138.65,113 -56.44,14.76 -120.83,10.42 -171.2,-20.75 -52.13,-16.85 -92.61,-60.26 -115.9,-109.43 -32,-67.52 -36.94,-145.62 -35.63,-219.251 0.7,-39.179 4.06,-78.289 9.95,-117.031 5.83,-38.398 12.31,-79.047 26.82,-115.269 22.16,-55.27 75.35,-79.028 131.54,-84.989 58.77,-6.242 124.54,0.059 180.25,20.141 26.69,9.609 52.13,23.719 72.03,44.211 22.56,23.219 35.44,53.117 42.91,84.25 8.7,36.277 12.26,74.066 16.07,111.109 3.99,38.778 7.1,77.75 8.33,116.729 1.88,59.6 -1.94,122.08 -26.52,177.28"
         style="fill:#481b14;fill-opacity:1;fill-rule:nonzero;stroke:none"
         id="path134" /><path
         d="M 1306.21,1288.61 C 1190,1253.03 1123.65,1120.19 1128.66,1002.2 c 0.28,-6.489 9.99,-8.309 11.67,-1.58 14.34,57.61 13.93,113.82 43.65,167.38 26.76,48.24 72.14,91.82 125.55,108.56 7.65,2.39 4.41,14.42 -3.32,12.05"
         style="fill:#742f21;fill-opacity:1;fill-rule:nonzero;stroke:none"
         id="path136" /><path
         d="m 1457.77,1246.75 c -7.62,5.89 -15.27,-6.35 -7.57,-9.82 63.94,-28.83 55.39,-153.07 56.5,-211.38 0.19,-10.05 15.87,-10.07 15.63,0 -1.87,75.66 0.66,170.78 -64.56,221.2"
         style="fill:#742f21;fill-opacity:1;fill-rule:nonzero;stroke:none"
         id="path138" /><path
         d="m 1472.95,1020.78 c -113.85,88.08 -299.04,8.56 -332.72,-125.241 -11.37,-45.16 -6.93,-94.019 -0.52,-139.617 3.24,-23.07 8.44,-45.981 16.91,-67.492 26.24,-22.418 61.23,-33.758 97.54,-37.61 58.77,-6.242 124.54,0.059 180.25,20.141 26.69,9.609 52.13,23.719 72.03,44.211 22.56,23.219 35.44,53.117 42.91,84.25 3.15,13.148 5.49,26.519 7.54,39.949 -9.02,66.25 -28.66,138.641 -83.94,181.409"
         style="fill:#93383e;fill-opacity:1;fill-rule:nonzero;stroke:none"
         id="path140" /><path
         d="m 1367.31,1037.13 c -55.19,-10.01 -100.07,-25.33 -139.48,-67.778 -34.46,-37.114 -53.31,-82.911 -59.5,-132.743 -0.99,-7.961 13.03,-9.929 14.11,-1.898 12.7,94.09 87.64,181.309 186.54,190.139 8.97,0.8 7.35,13.91 -1.67,12.28"
         style="fill:#8e202b;fill-opacity:1;fill-rule:nonzero;stroke:none"
         id="path142" /><path
         d="m 1182.56,774.789 c 2.91,9.441 -14.35,10.731 -12.06,0 1.83,-8.527 -0.24,-18.93 -0.01,-27.73 0.18,-7.098 -0.63,-14.75 3.7,-20.661 2.53,-3.468 6.96,-2.699 8.56,1.122 2.83,6.718 0.39,14.269 -0.18,21.378 -0.63,7.891 -2.37,18.25 -0.01,25.891"
         style="fill:#8e202b;fill-opacity:1;fill-rule:nonzero;stroke:none"
         id="path144" /><path
         d="m 1505.57,868.531 c -5.2,43.278 -26.17,71.399 -47.53,107.66 -4.49,7.641 -15.95,-0.621 -9.81,-7.582 46.39,-52.507 39.52,-137.66 24.28,-199.918 -2.2,-8.98 10.88,-15.281 15.42,-6.5 16.79,32.469 21.98,70.188 17.64,106.34"
         style="fill:#8e202b;fill-opacity:1;fill-rule:nonzero;stroke:none"
         id="path146" /><path
         d="m 1295.47,2389.4 v 0.2 z m 166.9,55.91 c 1.6,0.9 3.2,1.7 4.79,2.7 8.01,5 -0.09,17.39 -8.39,13.89 -39.31,-16.99 -75.6,-45.6 -116.7,-59.2 -3.01,2.41 -8.21,1.21 -8.61,-2.79 l -0.2,-0.11 c -6.39,-1.7 -33.09,-9.4 -37.79,-10.4 28.59,-123.39 44.1,-254.4 43.5,-380.2 -0.4,-95.69 13.5,-191.19 10.29,-286.69 -1,-26.31 -1.59,-52.71 -1.99,-79 -32.3,-11.51 -56.9,-48.4 -69.1,-79.6 -3.51,-9.11 -13.3,-31.21 1.7,-35.4 12.29,-3.31 29.59,11.2 42.9,24.1 -7.1,-18 -15.1,-35 -25.9,-52.5 -4.6,-7.54 -11.54,-16.79 -17.28,-26.28 -5,-8.26 -1.5,-19.75 7.7,-22.66 2.96,-0.94 6.48,-1.01 10.58,0.43 0,0 10.5,-25.1 32,-13.8 0,0 1.12,-16.41 19.7,-14.97 10.65,0.82 19.82,7.74 24.67,17.24 20.35,39.79 85.64,171.28 102.12,250.34 11.01,52.69 18.1,106.09 23.3,158.59 20.21,200.31 4.51,399.8 -37.29,596.31"
         style="fill:#f9aa91;fill-opacity:1;fill-rule:nonzero;stroke:none"
         id="path148" /><path
         d="m 940.074,2999.91 c 0,0 -209.285,-50.93 -251.644,-178.27 -42.36,-127.34 -122.836,-348.52 -122.836,-348.52 0,0 55.066,-100.73 160.957,-100.73 0,0 -92.242,-403.24 -100.715,-700.9 0,0 433.344,-95.88 725.604,0.97 0,0 6.23,489.42 -31.89,717.51 0,0 118.61,-15.89 165.2,44.68 0,0 24.8,410.99 -339.17,576.76 l -205.506,-11.5"
         style="fill:#3989ba;fill-opacity:1;fill-rule:nonzero;stroke:none"
         id="path150" /><path
         d="m 876.777,2912.33 c -1.925,24.97 -8.195,55.62 -28.218,69.45 -10.43,7.2 -24.676,9.01 -36.883,4.82 -10.731,-0.2 -20.625,-5.36 -26.996,-16.01 l -0.52,-1.03 c -1.004,0.48 -2.394,-0.01 -2.484,-1.68 -0.082,-1.55 -0.168,-3.1 -0.246,-4.65 -2.196,-6.77 -2.551,-14.27 -1.16,-21.33 -8.719,-162.35 -19.61,-324.45 -36.825,-485.94 -9.191,-86.18 -19.953,-172.12 -32.261,-257.76 -6.012,-41.83 -12.477,-83.56 -19.114,-125.26 -5.773,-36.29 -14.961,-76.37 -4.32,-112.64 3.504,-11.92 9.781,-23.23 17.793,-32.3 -17.035,-18.13 -39.168,-30.25 -64.453,-32.53 -16.395,-1.49 -38.262,10.04 -53.797,3.17 -19.992,-8.83 -11.25,-33.35 3.344,-42.17 26.086,-15.77 57.164,-16.95 85.019,-7.84 4.434,1.12 8.785,2.49 12.985,4.25 13.32,5.58 24.754,14.11 33.945,24.6 9.219,9.29 16.637,20.14 21.637,32.18 19.16,1.42 34.504,17.3 43.879,36.73 13.878,28.77 18.582,62.94 24.656,94.71 7.957,41.63 14.972,83.48 21.332,125.49 25.008,165.26 37.484,332.84 41.875,500.49 1.098,41.9 1.64,83.81 1.898,125.73 0.25,39.59 1.957,80.06 -1.086,119.52"
         style="fill:#93383e;fill-opacity:1;fill-rule:nonzero;stroke:none"
         id="path152" /><path
         d="m 800.41,2939.13 c 15.664,-72.95 -2.074,-157.63 -9.504,-231.01 -7.265,-71.77 -17.98,-143.36 -23.297,-215.29 -0.414,-5.57 8.743,-6.87 9.821,-1.33 28.414,145.75 46.843,301.43 35.258,449.29 -0.704,9.02 -14.196,7.29 -12.278,-1.66"
         style="fill:#8e202b;fill-opacity:1;fill-rule:nonzero;stroke:none"
         id="path154" /><path
         d="m 847.668,2595.58 c 1.836,-85.88 -17.113,-174.83 -26.625,-260.03 -0.816,-7.29 11.582,-9.01 12.887,-1.74 15.515,86.32 14.261,173.69 26.011,260.11 1.25,9.19 -12.464,10.53 -12.273,1.66"
         style="fill:#8e202b;fill-opacity:1;fill-rule:nonzero;stroke:none"
         id="path156" /><path
         d="m 1351.47,1877.7 0.2,-59.9 c -3.41,-2.29 -8.01,-2.69 -10.8,0.9 -10.6,13.6 -19.11,28.6 -24.2,45.11 -5.4,17.2 -5.71,36.89 -10.6,54.5 -10.11,7.29 -18.5,22.29 -24.11,36.89 -12.09,31.3 -16.09,70.81 -18.99,106.81 -6.7,85.4 -9.31,172.19 -13.31,258.1 -3.99,85.29 -8.19,170.6 -11,256.1 -2.59,80 -2.99,160.89 4.31,240.4 3.59,39.49 9.19,78.59 17.2,116.4 4.49,21.3 12.1,55.79 29.4,53.49 11.9,5.51 24.69,-3.49 31.3,-20.09 11.29,-28.31 8.79,-68.71 9.5,-100.6 2,-87.8 4.29,-175.61 6.5,-263.4 4.4,-176.4 8.8,-352.9 13.2,-529.31 0.89,-35 4.1,-72.09 0.2,-106.89 -2.01,-17.41 -6.9,-34.8 -15.7,-44.61 5.4,-14.79 11.19,-29.39 16.9,-43.9"
         style="fill:#93383e;fill-opacity:1;fill-rule:nonzero;stroke:none"
         id="path158" /><path
         d="m 1295.07,2929.95 c 1.7,7.81 -10,11.15 -12.06,3.32 -19.08,-72.74 -32.1,-155.66 -14.89,-229.86 0.75,-3.24 5.29,-2.27 5.52,0.75 5.81,76.52 4.93,150.09 21.43,225.79"
         style="fill:#8e202b;fill-opacity:1;fill-rule:nonzero;stroke:none"
         id="path160" /><path
         d="m 1318.64,2002.98 c -22.42,106.11 -29.72,210.84 -33.39,318.87 -0.14,4.15 -5.74,3.89 -6.25,0 -14.16,-107.25 0.2,-218.08 31.21,-321.2 1.63,-5.42 9.6,-3.17 8.43,2.33"
         style="fill:#8e202b;fill-opacity:1;fill-rule:nonzero;stroke:none"
         id="path162" /><path
         d="m 1439.87,2616.17 -132.26,-229.1 c -8.18,-14.17 -26.31,-19.02 -40.48,-10.85 l -86.73,50.08 c -14.17,8.18 -19.03,26.31 -10.85,40.48 l 132.27,229.09 c 8.19,14.17 26.31,19.03 40.48,10.85 l 86.73,-50.08 c 14.17,-8.18 19.03,-26.3 10.84,-40.47"
         style="fill:#050707;fill-opacity:1;fill-rule:nonzero;stroke:none"
         id="path164" /><path
         d="m 1465.91,2831.37 c 0,-74.82 -90.3,-170.75 -90.3,-170.75 0,0 -90.3,95.93 -90.3,170.75 0,74.82 48.01,100.21 90.3,100.21 42.3,0 90.3,-25.39 90.3,-100.21"
         style="fill:#f14c37;fill-opacity:1;fill-rule:nonzero;stroke:none"
         id="path166" /><path
         d="m 1427.79,2845.47 c 0,-28.82 -23.36,-52.18 -52.18,-52.18 -28.82,0 -52.18,23.36 -52.18,52.18 0,28.82 23.36,52.18 52.18,52.18 28.82,0 52.18,-23.36 52.18,-52.18"
         style="fill:#ffffff;fill-opacity:1;fill-rule:nonzero;stroke:none"
         id="path168" /><path
         d="m 1368.86,2455 c 0.4,1.21 -0.09,2.5 -0.89,3.3 -7.7,8.91 -21.9,2.71 -31.01,-0.4 13.31,9.51 22.3,19.11 15.2,25.61 -7.5,7 -30.09,-3.91 -37.09,-6.7 -4.6,-1.9 -9.31,-3.91 -14,-6.01 11.5,10.81 19.5,22.3 8.3,28.31 -8.1,4.3 -25.71,-4.51 -33.01,-7.61 -17.79,-7.59 -33.89,-18.8 -51.79,-26.39 6.79,19.8 21.39,63.6 -3.7,54.8 -5.11,-1.7 -9.8,-10.11 -13.2,-14.11 -7.6,-8.99 -15.1,-18.19 -24.01,-26 -14.49,-12.7 -31.59,-22.5 -48.79,-31.5 -76.9,-31.29 -152.804,-65.09 -226.007,-104.5 -68.398,-36.79 -131.898,-80.9 -197.5,-121.9 2.004,49.01 6.703,97.7 14.403,146.2 0.3,1.61 0,3 -0.7,4.11 -10.5,-0.91 -74.199,-3.01 -135.601,68.59 l -0.297,-0.29 c -2.5,0 -4.902,-1.2 -5.602,-4.41 -19.597,-88.89 -42.5,-183.29 -20.898,-274 7.598,-31.59 19.496,-76.09 45,-98.5 24.098,-21.1 66.598,-18.89 95.797,-15.19 93.203,11.7 171.305,73.29 246.305,124.89 96.5,66.41 191.7,135.3 290.2,198.71 1.3,-0.2 2.7,-0.11 4.29,0.8 19,11.3 45.11,14.2 65.51,22.99 10,4.31 32.7,10.11 36.1,21.7 0.29,1.21 0,2.61 -0.9,3.41 -5.91,5.39 -16.31,5.7 -27.2,4 7.99,3.89 16.09,7.59 24.19,11.7 8.8,4.4 23.01,8.3 26.9,18.39"
         style="fill:#f9aa91;fill-opacity:1;fill-rule:nonzero;stroke:none"
         id="path170" /><path
         d="m 1143.62,3008.33 c -108.46,-77.49 -203.999,-14.12 -203.999,-14.12 2.984,12.78 4.734,25.91 5.703,39.2 0.614,8.66 0.797,17.35 0.641,26.08 -1.047,90.94 -37.074,179.71 -37.074,179.71 l 218.299,-99.89 c -19.4,-52.64 16.43,-130.98 16.43,-130.98"
         style="fill:#f9aa91;fill-opacity:1;fill-rule:nonzero;stroke:none"
         id="path172" /><path
         d="m 1130.83,3043.94 c 1.79,-6.23 3.7,-11.94 5.43,-16.9 -116.37,-15.79 -183.026,60.46 -206.397,137.73 -0.293,0.99 -20.668,73.36 -20.972,74.43 l 217.589,-102.36 c -8.23,-24.47 -5.04,-53.98 0.68,-78.58 1.14,-5.04 2.33,-9.82 3.67,-14.32"
         style="fill:#f78f6e;fill-opacity:1;fill-rule:nonzero;stroke:none"
         id="path174" /><path
         d="m 1442.82,3521.23 c -20.06,37 -95.19,32.28 -127.21,33.54 -70.23,2.79 -140.61,-2.32 -209.81,-14.54 -148.39,-26.21 -287.706,-86.48 -409.859,-174.36 -3.16,-2.28 -3.39,-5.91 -2.105,-8.71 -8.746,-0.87 -8.156,-14.48 1.195,-15.33 168.02,-15.4 338.359,17.16 502.459,50.22 38.19,7.69 292.32,42.56 245.33,129.18"
         style="fill:#281010;fill-opacity:1;fill-rule:nonzero;stroke:none"
         id="path176" /><path
         d="m 865.426,3380.43 c 0,0 -63.594,36.79 -86.121,2.64 -22.528,-34.14 30.261,-124.04 80.863,-87.3 l 5.258,84.66"
         style="fill:#f9aa91;fill-opacity:1;fill-rule:nonzero;stroke:none"
         id="path178" /><path
         d="m 1255.76,3429.39 c 0,0 52.54,51.36 82.8,23.84 30.27,-27.53 1.31,-127.68 -56.79,-104.58 l -26.01,80.74"
         style="fill:#f9aa91;fill-opacity:1;fill-rule:nonzero;stroke:none"
         id="path180" /><path
         d="m 842,3366.33 c 3.77,-29.93 10.57,-58.49 19.883,-85.07 22.289,-64.46 59.332,-117.94 104.222,-152.99 43.425,-34.12 94.075,-51.06 145.765,-44.58 127.35,15.91 213.16,168.48 191.6,340.51 -21.55,172.14 -142.41,298.75 -269.77,282.74 C 906.254,3690.93 820.441,3538.47 842,3366.33"
         style="fill:#f9aa91;fill-opacity:1;fill-rule:nonzero;stroke:none"
         id="path182" /><path
         d="m 1290.34,3549.83 c -31.09,31.42 -127.6,24.57 -166.36,23.31 -86.67,-2.81 -252.906,-21.22 -284.062,-120.88 -2.207,-1.05 -3.969,-3.08 -4.188,-6.54 -2.613,-41.79 -9.707,-91.05 16.286,-127.43 1.422,-2 3.308,-2.7 5.105,-2.64 4.137,-2 9.555,-1.04 10.328,4.56 4.977,36.09 15.641,69.48 32.719,100.88 3.812,-0.82 7.656,-1.5 11.527,-2.01 14.7,-1.93 29.563,-1.56 44.172,0.88 26.332,4.41 59.213,16.65 75.223,39.32 l -0.04,1.82 c 0.82,2.18 0.53,4.76 -1.56,7.26 32.28,0.14 64.88,-6.6 94.37,-19.59 1.78,-0.78 4.21,-0.29 4.7,1.92 2.11,9.4 2.56,21.28 -0.22,31.41 43.38,-9.03 86.12,-11.55 130.04,-5.42 16.12,-30.68 28.05,-62.63 38.59,-95.57 1.84,-5.73 9.87,-4.49 10.27,1.38 2.67,39.07 15.07,135.04 -16.9,167.34"
         style="fill:#93383e;fill-opacity:1;fill-rule:nonzero;stroke:none"
         id="path184" /><path
         d="m 1025.71,3378.03 c -23.9,-3.06 -40.94,-24.34 -37.98,-47.44 0.563,-4.43 4.75,-7.56 9.333,-6.98 4.587,0.59 7.847,4.68 7.287,9.1 -1.83,14.25 8.68,27.37 23.43,29.26 14.74,1.88 28.21,-8.17 30.03,-22.42 0.58,-4.43 4.77,-7.56 9.35,-6.97 4.58,0.58 7.85,4.67 7.29,9.1 -2.96,23.11 -24.82,39.41 -48.74,36.35"
         style="fill:#381515;fill-opacity:1;fill-rule:nonzero;stroke:none"
         id="path186" /><path
         d="m 1205.63,3397.74 c -22.31,-2.86 -38.07,-23.98 -35.11,-47.09 0.56,-4.42 4.51,-7.58 8.78,-7.03 4.29,0.54 7.3,4.6 6.74,9.02 -1.82,14.25 7.88,27.28 21.65,29.04 13.76,1.76 26.43,-8.39 28.25,-22.64 0.58,-4.43 4.52,-7.59 8.8,-7.04 4.27,0.55 7.29,4.6 6.72,9.03 -2.95,23.11 -23.51,39.57 -45.83,36.71"
         style="fill:#381515;fill-opacity:1;fill-rule:nonzero;stroke:none"
         id="path188" /><path
         d="m 1152.14,3311.38 c -5.33,-6.92 -32.24,-10.86 -40.3,-5.77 -1.94,1.25 -3.17,6.55 -3.92,14.18 -2.17,24.77 2.27,73.28 12.91,74.71 l 2.42,-0.49 c 13.78,-6.28 33.99,-76.16 28.89,-82.63"
         style="fill:#f78f6e;fill-opacity:1;fill-rule:nonzero;stroke:none"
         id="path190" /><path
         d="m 1123.81,3303.3 c -5.02,0 -9.43,0.7 -11.97,2.31 -1.94,1.25 -3.17,6.55 -3.92,14.18 27.62,12.3 21.34,51.81 15.33,74.22 12.3,-5.6 29.73,-61.88 29.7,-78.51 0,-2 -0.26,-3.42 -0.81,-4.12 -3.65,-4.74 -17.42,-8.08 -28.33,-8.08"
         style="fill:#f57659;fill-opacity:1;fill-rule:nonzero;stroke:none"
         id="path192" /><path
         d="m 1081.86,3272.13 c 0,0 30.6,1.5 56.35,4.8 25.75,3.3 55.73,9.54 55.73,9.54 0,0 -9.89,-39.99 -51.16,-45.27 -41.28,-5.28 -60.92,30.93 -60.92,30.93"
         style="fill:#ffffff;fill-opacity:1;fill-rule:nonzero;stroke:none"
         id="path194" /><path
         d="m 1057.9,3443.69 c -29.59,-11.36 -58.763,-23.6 -88.236,-35.19 -2.062,-0.81 -2.953,-2.32 -3.035,-3.82 -1.41,-1.27 -2.024,-3.12 -0.566,-4.95 13.578,-17.03 37.347,-6.66 55.187,0.54 12.07,4.87 26.22,8.95 36.98,15.86 9.53,6.12 11.8,12.85 15.26,21.9 3.17,8.29 -10.43,10.04 -15.59,5.66"
         style="fill:#93383e;fill-opacity:1;fill-rule:nonzero;stroke:none"
         id="path196" /><path
         d="m 1246.65,3439.09 c -24.57,7.01 -49.48,13.05 -74.12,19.8 -1.73,0.47 -3.23,-0.28 -4.27,-1.47 -1.65,-0.28 -3.21,-1.47 -3.57,-3.79 -3.35,-21.63 17.21,-26.23 32.25,-30.17 10.18,-2.66 21.03,-7.13 31.79,-7.38 9.52,-0.22 15.27,4.1 23.21,9.68 7.28,5.11 0.57,14.1 -5.29,13.33"
         style="fill:#93383e;fill-opacity:1;fill-rule:nonzero;stroke:none"
         id="path198" /><path
         d="m 1233.41,3273.13 c 3.34,-26.59 17.46,-49.12 37.37,-63.95 23.71,47.83 36.84,105.81 35.97,168.02 -47.14,-10.42 -79.47,-55.21 -73.34,-104.07"
         style="fill:#f5807b;fill-opacity:1;fill-rule:nonzero;stroke:none"
         id="path200" /><path
         d="m 861.883,3281.26 c 22.289,-64.46 59.332,-117.94 104.222,-152.99 38.405,15.91 62.995,55.98 57.555,99.1 -6.49,51.79 -53.789,88.52 -105.687,82.04 -22.293,-2.73 -41.754,-13.08 -56.09,-28.15"
         style="fill:#f5807b;fill-opacity:1;fill-rule:nonzero;stroke:none"
         id="path202" /><path
         d="m 1359.19,3576.75 c -17.95,0.74 -35.91,0.95 -53.87,0.89 -9.02,68.18 -30.23,131.84 -85.56,177.16 -53.73,44.01 -125.88,62.35 -194.1,49.49 -152.012,-28.64 -231.957,-177.92 -207.972,-322.66 -7.61,-3.3 -15.239,-6.57 -22.715,-10.1 -43.852,-20.67 -128.914,-63.01 -108.977,-123.37 2.371,-7.17 10.242,-6.49 13.551,-2.14 l 1.473,1.68 c 34.546,59.3 111.32,83.4 171.886,106.55 58.934,22.52 119.821,39.95 181.664,52.34 64.41,12.89 129.88,20.05 195.54,21.44 56.85,1.2 138.51,9.42 184.21,-31.38 1.73,-2.66 4.19,-4.74 6.99,-6.09 4.16,-3.27 8.73,-3.19 12.42,-0.99 3.98,1.4 7.23,4.68 8.25,10.37 11.83,66.1 -51.39,74.68 -102.79,76.81"
         style="fill:#481b14;fill-opacity:1;fill-rule:nonzero;stroke:none"
         id="path204" /><path
         d="m 1298.46,3616.83 c 2.86,-12.79 5.09,-25.95 6.83,-39.23 -201.6,9.94 -487.61,-95.96 -487.61,-95.96 -1.614,9.94 -2.731,19.74 -3.473,29.67 147.969,77.21 319.273,98.69 484.253,105.52"
         style="fill:#b25640;fill-opacity:1;fill-rule:nonzero;stroke:none"
         id="path206" /><path
         d="m 1352.16,2588.1 h 256.68 c 17.44,0 33.13,-7.03 44.56,-18.45 11.42,-11.43 18.45,-27.12 18.46,-44.56 0,-45.85 37.16,-83 83.01,-83.01 h 602.31 c 69.85,0.01 126.46,56.62 126.46,126.46 v 571.58 h -20 v -571.58 c 0,-29.43 -11.9,-55.98 -31.18,-75.28 -19.3,-19.28 -45.85,-31.18 -75.28,-31.18 h -602.31 c -17.43,0 -33.12,7.04 -44.56,18.46 -11.42,11.43 -18.45,27.12 -18.45,44.55 -0.01,45.86 -37.17,83.01 -83.02,83.01 h -256.68 v -20"
         style="fill:#050707;fill-opacity:1;fill-rule:nonzero;stroke:none"
         id="path208" /><path
         d="m 2473.64,2732.06 h 1419.22 c 18.03,-0.01 34.26,-7.28 46.08,-19.08 11.8,-11.83 19.07,-28.05 19.08,-46.08 v -58.1 h 20 v 58.1 c -0.01,47.04 -38.12,85.15 -85.16,85.16 H 2473.64 v -20"
         style="fill:#050707;fill-opacity:1;fill-rule:nonzero;stroke:none"
         id="path210" /><path
         d="m 2728.18,3573.62 c 0,-211.87 -255.7,-483.5 -255.7,-483.5 0,0 -255.7,271.63 -255.7,483.5 0,211.86 135.94,283.73 255.7,283.73 119.76,0 255.7,-71.87 255.7,-283.73"
         style="fill:#f14c37;fill-opacity:1;fill-rule:nonzero;stroke:none"
         id="path212" /><path
         d="m 2620.25,3613.53 c 0,-81.61 -66.16,-147.76 -147.77,-147.76 -81.6,0 -147.76,66.15 -147.76,147.76 0,81.61 66.16,147.76 147.76,147.76 81.61,0 147.77,-66.15 147.77,-147.76"
         style="fill:#ffffff;fill-opacity:1;fill-rule:nonzero;stroke:none"
         id="path214" /><path
         d="m 4096.03,2466.76 c 0,-106.06 -128.01,-242.04 -128.01,-242.04 0,0 -128.01,135.98 -128.01,242.04 0,106.06 68.06,142.04 128.01,142.04 59.95,0 128.01,-35.98 128.01,-142.04"
         style="fill:#f14c37;fill-opacity:1;fill-rule:nonzero;stroke:none"
         id="path216" /><path
         d="m 4041.99,2486.74 c 0,-40.85 -33.12,-73.97 -73.97,-73.97 -40.85,0 -73.98,33.12 -73.98,73.97 0,40.85 33.13,73.97 73.98,73.97 40.85,0 73.97,-33.12 73.97,-73.97"
         style="fill:#ffffff;fill-opacity:1;fill-rule:nonzero;stroke:none"
         id="path218" /></g></g></svg>
