<svg version="1.2" baseProfile="tiny-ps" xmlns="http://www.w3.org/2000/svg" viewBox="0 0 1336 1090" width="1336" height="1090">
	<title>Layer 1</title>
	<style>
		tspan { white-space:pre }
		.shp0 { fill: #ffac3a } 
		.shp1 { fill: #ff9e6e } 
		.shp2 { fill: #ea733d } 
		.shp3 { fill: #2b2c41 } 
		.shp4 { fill: #e5e6f9 } 
		.shp5 { fill: #f8bf41 } 
		.shp6 { fill: #6ea43b } 
		.shp7 { fill: #9ea2c6 } 
		.shp8 { fill: #ececec } 
		.shp9 { fill: #ffceb8 } 
		.shp10 { fill: #ffffff } 
		.shp11 { fill: #21202b } 
		.shp12 { fill: #3b384b } 
		.shp13 { fill: #5c5a6e } 
		.shp14 { fill: #3c3647 } 
		.shp15 { fill: #bdb9d2 } 
		.shp16 { opacity: 0.502;mix-blend-mode: multiply;fill: #21202b } 
		.shp17 { fill: #272033 } 
		.shp18 { fill: #ff943a } 
		.shp19 { fill: #ffac3f } 
		.shp20 { fill: #ffd097 } 
		.shp21 { fill: #484457 } 
		.shp22 { fill: #fbc241 } 
		.shp23 { fill: #e5f0ff } 
		.shp24 { fill: #b0c9ed } 
		.shp25 { fill: #cfe0ff } 
		.shp26 { fill: #7e7d91 } 
		.shp27 { fill: #b1162e } 
		.shp28 { fill: #751124 } 
		.shp29 { opacity: 0.502;fill: #ffffff } 
		.shp30 { fill: #9e9eb5 } 
		.shp31 { fill: #ffd278 } 
		.shp32 { fill: #e5313a } 
		.shp33 { fill: #c22e41 } 
		.shp34 { fill: #8e1e41 } 
		.shp35 { fill: #63112f } 
		.shp36 { fill: #60112d } 
	</style>
	<g id="Layer 1">
		<g id="&lt;Group&gt;">
			<g id="&lt;Group&gt;">
				<g id="&lt;Group&gt;">
					<path id="&lt;Path&gt;" class="shp0" d="M1241.92 604.41C1246.74 614.27 1255.4 627.26 1269.9 635.86C1273.97 638.27 1273.21 644.25 1268.83 646.02C1259.66 649.73 1248.88 657.42 1241.82 673.36C1239.87 677.74 1233.42 677.74 1231.48 673.36C1224.41 657.42 1213.63 649.73 1204.46 646.02C1200.08 644.25 1199.33 638.27 1203.39 635.86C1217.9 627.26 1226.55 614.27 1231.37 604.41C1233.54 600 1239.76 600 1241.92 604.41Z" />
				</g>
				<g id="&lt;Group&gt;">
					<path id="&lt;Path&gt;" class="shp0" d="M1148.73 638.09C1151.56 643.88 1156.64 651.51 1165.16 656.56C1167.55 657.97 1167.11 661.49 1164.53 662.53C1159.15 664.7 1152.82 669.22 1148.67 678.58C1147.53 681.16 1143.74 681.16 1142.6 678.58C1138.45 669.22 1132.12 664.7 1126.73 662.53C1124.16 661.49 1123.71 657.97 1126.1 656.56C1134.62 651.51 1139.7 643.88 1142.54 638.09C1143.81 635.5 1147.46 635.5 1148.73 638.09Z" />
				</g>
				<g id="&lt;Group&gt;">
					<path id="&lt;Path&gt;" class="shp0" d="M621.22 227.3C624.05 233.09 629.14 240.72 637.65 245.77C640.05 247.18 639.6 250.7 637.03 251.74C631.64 253.91 625.31 258.43 621.16 267.79C620.02 270.37 616.23 270.37 615.09 267.79C610.94 258.43 604.61 253.91 599.22 251.74C596.65 250.7 596.21 247.18 598.59 245.77C607.11 240.72 612.19 233.09 615.03 227.3C616.3 224.71 619.95 224.71 621.22 227.3Z" />
				</g>
				<g id="&lt;Group&gt;">
					<path id="&lt;Path&gt;" class="shp0" d="M263.1 79.63C263.96 81.39 265.5 83.7 268.09 85.24C268.82 85.67 268.68 86.73 267.9 87.05C266.26 87.71 264.34 89.08 263.08 91.93C262.73 92.71 261.58 92.71 261.24 91.93C259.98 89.08 258.05 87.71 256.42 87.05C255.64 86.73 255.5 85.67 256.23 85.24C258.81 83.7 260.36 81.39 261.22 79.63C261.6 78.84 262.71 78.84 263.1 79.63Z" />
				</g>
				<g id="&lt;Group&gt;">
					<path id="&lt;Path&gt;" class="shp0" d="M247.35 131.86C249.68 136.62 253.86 142.9 260.87 147.05C262.84 148.22 262.47 151.11 260.35 151.96C255.92 153.75 250.71 157.47 247.3 165.17C246.36 167.29 243.25 167.29 242.3 165.17C238.89 157.47 233.68 153.75 229.25 151.96C227.14 151.11 226.77 148.22 228.73 147.05C235.74 142.9 239.92 136.62 242.25 131.86C243.3 129.73 246.31 129.73 247.35 131.86Z" />
				</g>
				<g id="&lt;Group&gt;">
					<g id="&lt;Group&gt;">
						<path id="&lt;Path&gt;" class="shp1" d="M1301.03 1040.39C1274.19 1085.02 1232.5 1099.4 1175.94 1083.53L982.41 999.95C974.62 1001.58 965.27 1001.27 958.86 1000.71L958.8 1000.71C955.74 1000.45 953.19 1000.14 951.14 999.76C806.3 1000.06 713.03 1000.06 671.33 999.76C629.68 999.51 604.87 982.29 596.92 948.08C592.27 948.4 587.88 948.59 583.67 948.59C535.95 948.63 508.11 934.06 500.16 904.88C496.45 904.69 492.87 904.38 489.42 904C437.93 898.14 411.72 876.1 410.8 837.88L407.85 748.59C329.44 748.59 275.35 751.08 245.59 756.06C215.83 761.04 204.92 752.61 212.87 730.76C227.73 697.01 276.86 678.66 360.25 675.68C384.03 675.68 449.02 665.74 555.23 645.86C628.19 635.5 730.86 596.75 724.96 556.57C720.94 529.77 691.66 500.01 637.11 467.27C621.24 461.33 600.9 443.98 576.07 415.22C535.38 338.78 535.38 299.55 576.07 297.54C589.97 297.54 619.74 320.38 665.37 366.05C738.79 443.45 812.24 481.65 885.71 480.65C933.35 484.62 971.05 503.48 998.8 537.22C1086.71 609.37 1104.86 691.2 1105.93 696.28C1105.97 696.37 1105.99 696.45 1105.99 696.53L1123.82 707.4L1301.03 815.59C1352.02 846.73 1341.21 973.39 1301.03 1040.39Z" />
					</g>
					<path id="&lt;Path&gt;" class="shp2" d="M1074.72 826.02C1069.75 914.33 1038.98 972.3 982.42 999.96C974.6 1001.57 965.27 1001.26 958.84 1000.68C1014.54 970.25 1053.17 912.03 1074.72 826.02Z" />
					<path id="&lt;Path&gt;" class="shp2" d="M1106.03 784.18C1113.92 753.46 1113.9 724.24 1105.98 696.52L1123.8 707.42C1119.29 748.46 1106.97 781.68 1106.03 784.18Z" />
					<g id="&lt;Group&gt;">
						<path id="&lt;Path&gt;" class="shp3" d="M802.39 998.53C797.62 1004.33 789.05 1005.17 783.25 1000.4L132.67 456.73C126.86 451.96 110 442.78 129.2 421.34L347.04 156.41C351.81 150.6 377.86 133.68 383.67 138.45L1027.48 703.17C1033.29 707.94 1034.13 716.51 1029.36 722.31L802.39 998.53Z" />
						<path id="&lt;Path&gt;" class="shp4" d="M817.2 980.51C812.42 986.32 803.85 987.16 798.05 982.39L147.47 438.72C141.66 433.95 140.82 425.38 145.6 419.57L372.56 143.36C377.33 137.55 385.9 136.72 391.7 141.48L1042.29 685.15C1048.09 689.92 1048.93 698.49 1044.16 704.29L817.2 980.51Z" />
						<path id="&lt;Path&gt;" class="shp4" d="M1044.16 704.29L817.2 980.51C812.42 986.32 803.85 987.16 798.05 982.39L147.47 438.72C141.66 433.95 140.82 425.38 145.6 419.57L150.53 413.58L795.1 952.31C800.91 957.08 809.48 956.24 814.25 950.43L1036.28 680.22L1042.29 685.15C1048.09 689.92 1048.93 698.49 1044.16 704.29Z" />
						<path id="&lt;Path&gt;" class="shp5" d="M981.3 661.41L944.25 706.49L894.23 767.4L763 927.19L628.91 814.87L375.41 602.51L199.49 455.08C194.32 450.83 193.63 443.19 197.87 438.02L400.81 191.08C405.06 185.91 412.7 185.13 417.79 189.38L488.58 248.66L620.66 359.28L981.3 661.41Z" />
						<path id="&lt;Path&gt;" class="shp6" d="M894.23 767.4L763 927.19L628.91 814.87C649.45 806.15 667.2 793.34 676.85 774.73C694.84 739.99 798.74 749.18 894.23 767.4Z" />
						<path id="&lt;Path&gt;" class="shp6" d="M488.58 248.66C484.49 308.18 460.71 377.42 414.94 391.55C335.89 415.94 365.46 442.03 375.41 602.51L199.49 455.08C194.32 450.83 193.63 443.19 197.87 438.02L400.81 191.08C405.06 185.91 412.7 185.13 417.79 189.38L488.58 248.66Z" />
						<path id="&lt;Path&gt;" class="shp6" d="M981.3 661.41L944.25 706.49C920.63 682.33 900.63 656.01 888.44 630.38C819.19 484.95 797.5 585.84 647.52 493.13C587 455.69 592.48 405.67 620.66 359.28L981.3 661.41Z" />
						<path id="&lt;Path&gt;" class="shp7" d="M895.26 857.96C890.49 863.76 881.92 864.6 876.12 859.83L874.62 858.6C868.81 853.83 867.98 845.26 872.74 839.46L909.14 795.17C913.9 789.37 922.47 788.53 928.28 793.3L929.78 794.53C935.58 799.3 936.42 807.87 931.65 813.67L895.26 857.96Z" />
						<path id="&lt;Path&gt;" class="shp8" d="M227.8 378.81C224.39 382.96 218.26 383.55 214.12 380.15C209.98 376.74 209.38 370.62 212.78 366.47C216.19 362.33 222.31 361.73 226.46 365.14C230.6 368.54 231.2 374.66 227.8 378.81Z" />
						<path id="&lt;Path&gt;" class="shp8" d="M206.18 401.29C203.63 404.4 199.03 404.85 195.93 402.29C192.82 399.74 192.37 395.15 194.93 392.03C197.48 388.93 202.07 388.48 205.18 391.03C208.28 393.59 208.74 398.18 206.18 401.29Z" />
					</g>
					<g id="&lt;Group&gt;">
						<path id="&lt;Path&gt;" class="shp1" d="M673.4 873.92C675.48 884.22 677.36 900.36 676.17 922.46L596.92 948.08L596.92 859.86C594.66 843.49 600.6 829.72 614.75 818.54C635.98 801.84 659.4 775.02 668.38 758.26C682.49 750.85 691.03 755.68 694 772.76C698.52 798.45 707.44 813.01 669.45 859.86C670.83 862.96 672.15 867.65 673.4 873.92Z" />
					</g>
					<g id="&lt;Group&gt;">
						<path id="&lt;Path&gt;" class="shp1" d="M593.15 813.33L598.43 843.22L500.16 904.88L506.5 790.66C506.5 778.73 515.06 764.96 532.18 749.34C557.8 725.92 562.32 717 573.44 703.57C584.61 690.19 596.92 671.6 619.21 692.58C641.57 713.61 624.8 777.22 591.39 802.91C591.35 802.95 591.33 802.97 591.33 802.97L593.15 813.33Z" />
					</g>
					<g id="&lt;Group&gt;">
						<path id="&lt;Path&gt;" class="shp1" d="M490.74 765.17L500.16 837.88L407.85 748.59L407.85 715.87C411.07 707.67 419.38 694.63 432.78 676.75C452.87 650 464.05 633.24 468.51 627.65C472.97 622.06 504.17 612.51 515.92 653.02C528.22 673.82 519.12 705.68 488.6 748.59L490.74 765.17Z" />
					</g>
					<path id="&lt;Path&gt;" class="shp2" d="M673.4 873.92C665.91 877.48 656.2 878.19 644.27 876.06C656.83 873.42 665.22 868.02 669.45 859.86C670.83 862.96 672.15 867.65 673.4 873.92Z" />
					<path id="&lt;Path&gt;" class="shp2" d="M593.15 813.33C584.99 819.19 576.39 822.31 567.34 822.69C574.67 820.59 582.67 814.02 591.33 802.97L593.15 813.33Z" />
					<path id="&lt;Path&gt;" class="shp2" d="M490.74 765.17C483.12 769.35 475.44 773.1 467.69 776.41L488.6 748.59L490.74 765.17Z" />
					<path id="&lt;Path&gt;" class="shp2" d="M484.96 944.07C484.96 944.19 484.9 944.25 484.9 944.32C484.77 944.63 484.77 944.5 484.96 944.07Z" />
					<path id="&lt;Path&gt;" class="shp2" d="M500.16 904.88C496.45 904.69 492.87 904.38 489.42 904C491.47 882.9 493.6 859.48 495.82 833.74L500.16 904.88Z" />
					<path id="&lt;Path&gt;" class="shp2" d="M596.92 948.08C592.27 948.4 587.88 948.59 583.67 948.59L593.15 872.1L596.92 948.08Z" />
				</g>
				<path id="&lt;Path&gt;" class="shp9" d="M590.3 686.29C602.04 685.72 609.35 690.13 612.24 699.53C612.96 708.28 604.95 721.88 588.21 740.35C576.69 741.72 567.22 735.21 559.8 720.82C567.94 707.89 578.11 696.38 590.3 686.29Z" />
				<path id="&lt;Path&gt;" class="shp9" d="M469 633.12C478.96 625.53 506.76 634.11 500.16 655.78C495.75 670.23 487.96 680.39 476.78 686.26C457.48 685.5 448.35 677.15 449.38 661.2C455.97 652.31 462.5 642.95 469 633.12Z" />
				<path id="&lt;Path&gt;" class="shp9" d="M644.56 790.2C652.84 775.95 659.96 766.71 665.93 762.5C675.81 762.77 679.14 769.5 675.93 782.68C671.1 802.46 662.97 799.09 658.84 799.09C653.49 798.18 648.73 795.22 644.56 790.2Z" />
				<g id="&lt;Group&gt;">
					<path id="&lt;Compound Path&gt;" fill-rule="evenodd" class="shp10" d="M1053.15 642.93C1052.73 642.93 1052.32 642.92 1051.91 642.9L1051.61 642.89L1038.64 642.9C1037.82 642.93 1036.99 642.93 1036.17 642.9L1035.66 642.89L1033.4 642.89L1033.23 642.77C1033.07 642.76 1032.9 642.75 1032.74 642.73L1032.17 642.73L1031.88 642.66C1031.09 642.59 1030.3 642.5 1029.52 642.4L1029.29 642.36C1028.43 642.25 1027.58 642.11 1026.74 641.96L1026.58 641.93C1025.64 641.76 1024.71 641.56 1023.79 641.35C1022.81 641.12 1021.9 640.88 1021 640.63L1020.86 640.58C1020.02 640.35 1019.14 640.07 1018.27 639.77L1018.05 639.7C1017.29 639.44 1016.44 639.13 1015.6 638.8L1015.43 638.73C1014.61 638.41 1013.79 638.06 1012.99 637.7L1012.79 637.61C1012 637.25 1011.22 636.88 1010.44 636.48L1010.31 636.41C1009.45 635.98 1008.71 635.57 1007.97 635.16L1007.8 635.06C1006.97 634.58 1006.26 634.15 1005.56 633.71L1005.34 633.57C1004.57 633.07 1003.9 632.63 1003.24 632.16L1002.92 631.94C1002.24 631.45 1001.61 630.99 1000.98 630.51L1000.66 630.25C999.99 629.73 999.4 629.25 998.82 628.76L998.38 628.37C997.82 627.89 997.27 627.4 996.73 626.9L996.26 626.45C995.74 625.96 995.23 625.46 994.74 624.95L994.23 624.42C993.76 623.92 993.28 623.42 992.82 622.9L992.3 622.3C991.87 621.8 991.44 621.29 991.02 620.77L990.48 620.09C990.08 619.58 989.68 619.07 989.3 618.54C989.17 618.37 989.05 618.19 988.92 618.01L988.77 617.8C988.39 617.27 988.03 616.76 987.69 616.24C987.55 616.03 987.41 615.82 987.28 615.6L987.14 615.39C986.96 615.1 986.78 614.82 986.6 614.54L956.47 614.54C946.24 631.11 928.32 641.84 908.76 642.85L906.88 642.9C906.06 642.93 905.23 642.93 904.42 642.9L904.11 642.89L891.14 642.9C890.32 642.93 889.5 642.93 888.67 642.9L888.16 642.89L885.9 642.89L885.73 642.77C866.56 641.43 849.16 630.85 839.1 614.54L737.47 614.54C727.24 631.11 709.32 641.84 689.76 642.85L687.88 642.9C687.06 642.93 686.23 642.93 685.42 642.9L685.11 642.89L672.14 642.9C671.32 642.93 670.5 642.93 669.67 642.9L669.16 642.89L666.65 642.89L666.48 642.75C645.83 641.2 627.16 628.77 617.74 610.32C616.91 610 616.1 609.67 615.29 609.31C612.28 610.95 608.6 611.24 605.2 609.84C584.89 601.45 570.42 582.77 567.2 561.33C559.66 558.79 554.22 551.65 554.22 543.26L554.22 534.62C554.22 524.1 562.77 515.55 573.28 515.55C574.91 515.55 576.5 515.75 578.04 516.15C581.14 511.78 584.77 507.84 588.89 504.39C594.44 499.73 598.99 493.71 602.39 486.5L629.44 429.26C647.78 390.43 687.69 387.18 723.67 387.18L748.72 387.18L748.72 343.34L857.2 343.34L857.2 387.18L903.16 387.18C913.39 387.18 923.02 391.12 930.31 398.28L1022.97 473.3L1023.22 473.56C1023.69 474.03 1024.18 474.48 1024.67 474.93C1025.33 475.55 1025.95 476.1 1026.59 476.64L1026.7 476.73C1027.31 477.25 1027.93 477.74 1028.56 478.23L1028.75 478.38C1029.37 478.85 1029.99 479.3 1030.6 479.73L1030.9 479.94C1031.52 480.37 1032.12 480.76 1032.72 481.15L1033.14 481.41C1033.72 481.77 1034.32 482.12 1034.91 482.47L1035.43 482.76C1036 483.07 1036.58 483.39 1037.17 483.69L1037.78 484C1038.35 484.28 1038.91 484.55 1039.49 484.81L1040.1 485.08C1040.75 485.36 1041.3 485.6 1041.85 485.82L1042.67 486.13C1043.2 486.34 1043.74 486.54 1044.28 486.72C1044.51 486.8 1044.74 486.88 1044.96 486.95L1045.2 487.03C1045.71 487.2 1046.23 487.36 1046.76 487.52C1046.99 487.59 1047.24 487.66 1047.49 487.72L1047.78 487.8C1048.34 487.96 1048.81 488.08 1049.28 488.2C1049.55 488.27 1049.83 488.33 1050.11 488.39L1050.67 488.51C1051.06 488.6 1051.44 488.68 1051.83 488.76C1052.14 488.82 1052.44 488.87 1052.74 488.92L1053.53 489.05C1053.83 489.11 1054.13 489.16 1054.43 489.2C1054.78 489.25 1055.14 489.29 1055.49 489.34L1056.34 489.44C1056.58 489.47 1056.83 489.5 1057.07 489.52C1057.55 489.57 1058.05 489.6 1058.55 489.63L1059.27 489.69C1059.42 489.7 1059.57 489.71 1059.72 489.72C1061.72 489.82 1063.65 489.76 1065.87 489.89C1066.13 489.9 1066.4 489.92 1066.66 489.94L1066.96 489.97C1067.74 490.03 1068.52 490.09 1069.29 490.18C1069.64 490.21 1069.99 490.26 1070.33 490.31L1070.55 490.34C1071.26 490.43 1071.98 490.53 1072.7 490.65C1073.11 490.72 1073.52 490.8 1073.93 490.87C1074.66 491.01 1075.38 491.16 1076.09 491.32C1076.53 491.42 1076.88 491.5 1077.23 491.59C1078.01 491.78 1078.78 491.99 1079.54 492.21L1079.79 492.28C1080.01 492.34 1080.23 492.4 1080.45 492.47C1081.44 492.77 1082.42 493.1 1083.4 493.45C1083.41 493.45 1083.52 493.49 1083.64 493.53C1085.69 494.28 1087.82 495.19 1089.89 496.21L1090.18 496.36C1091.13 496.84 1092.01 497.31 1092.87 497.79L1093.34 498.07C1094.17 498.54 1094.99 499.04 1095.81 499.56L1096.21 499.82C1097.07 500.38 1097.92 500.96 1098.75 501.56L1098.96 501.71C1104.35 505.63 1109.05 510.33 1112.94 515.72L1113.26 515.77C1114.01 515.88 1114.77 516.03 1115.51 516.24C1123.78 518.5 1129.56 526.06 1129.56 534.62L1129.56 543.26C1129.56 547.97 1127.85 552.41 1124.78 555.86L1124.78 567.3C1125.05 567.34 1125.3 567.38 1125.55 567.43C1125.76 567.47 1125.97 567.51 1126.17 567.56C1126.6 567.66 1126.94 567.75 1127.28 567.84C1127.53 567.92 1127.76 567.99 1128 568.07C1128.35 568.18 1128.66 568.3 1128.97 568.42C1129.24 568.53 1129.47 568.62 1129.7 568.72C1129.95 568.83 1130.23 568.97 1130.51 569.11C1130.83 569.27 1131.03 569.37 1131.23 569.48L1131.63 569.71C1132.29 570.1 1132.93 570.52 1133.55 570.99C1133.71 571.11 1133.83 571.2 1133.95 571.3C1134.27 571.55 1134.57 571.81 1134.87 572.08C1134.97 572.17 1135.09 572.28 1135.21 572.39C1135.48 572.65 1135.77 572.95 1136.06 573.25C1136.15 573.35 1136.23 573.44 1136.32 573.54C1136.56 573.81 1136.83 574.12 1137.08 574.45L1137.32 574.74C1138.89 576.82 1140.02 579.14 1140.66 581.67C1141.07 583.27 1141.28 584.86 1141.28 586.43C1141.28 597.1 1132.59 605.78 1121.92 605.78L1114.35 605.78C1111.78 608.17 1108.84 610.14 1105.65 611.59C1095.78 629.88 1077.09 641.78 1056.26 642.85L1054.38 642.9C1053.97 642.92 1053.56 642.93 1053.15 642.93ZM948.43 600.98L994.62 600.98L996.75 605.01C996.93 605.34 997.13 605.69 997.34 606.05L997.82 606.89C998.05 607.28 998.31 607.68 998.56 608.07L998.98 608.73C999.25 609.14 999.53 609.54 999.81 609.93L1000.22 610.51C1000.52 610.92 1000.83 611.32 1001.14 611.71L1001.56 612.24C1001.88 612.64 1002.22 613.03 1002.56 613.43L1002.96 613.89C1003.31 614.29 1003.68 614.68 1004.05 615.07L1004.45 615.49C1004.82 615.86 1005.21 616.25 1005.61 616.63L1005.99 616.99C1006.4 617.37 1006.82 617.75 1007.25 618.12L1007.59 618.41C1008.04 618.79 1008.5 619.17 1008.96 619.53L1009.26 619.77C1009.75 620.14 1010.24 620.5 1010.73 620.85L1011 621.04C1011.52 621.41 1012.04 621.75 1012.56 622.09L1012.82 622.25C1013.35 622.59 1013.9 622.92 1014.45 623.24L1014.6 623.32C1015.24 623.69 1015.81 624 1016.4 624.3L1013.51 630.44L1016.58 624.39C1017.18 624.7 1017.78 624.98 1018.39 625.26L1018.56 625.34C1019.17 625.61 1019.8 625.88 1020.43 626.13L1020.57 626.18C1021.21 626.43 1021.86 626.67 1022.51 626.89C1023.29 627.16 1023.96 627.37 1024.65 627.56C1025.42 627.79 1026.12 627.97 1026.82 628.13C1027.56 628.3 1028.25 628.45 1028.94 628.58L1029.07 628.6C1029.8 628.73 1030.53 628.85 1031.27 628.95L1031.5 628.98C1032.14 629.06 1032.78 629.13 1033.42 629.18L1033.57 629.2C1034.33 629.26 1035.1 629.3 1035.87 629.33L1036.63 629.35C1037.15 629.37 1037.67 629.37 1038.18 629.35L1038.84 629.33L1052.38 629.35C1052.89 629.37 1053.4 629.37 1053.91 629.35L1055.65 629.3C1072.39 628.41 1087.33 618.46 1094.66 603.31L1095.88 600.8L1098.5 599.87C1101.54 598.8 1104.28 596.94 1106.43 594.51L1108.45 592.22L1121.92 592.22C1125.12 592.22 1127.72 589.62 1127.72 586.43C1127.72 585.98 1127.65 585.52 1127.53 585.02C1127.33 584.26 1126.98 583.55 1126.5 582.92L1126.44 582.84C1126.37 582.76 1126.3 582.67 1126.22 582.59L1126.13 582.49C1126.05 582.4 1125.96 582.32 1125.88 582.23L1125.76 582.13C1125.67 582.05 1125.59 581.97 1125.5 581.9L1125.36 581.8C1125.17 581.66 1124.97 581.52 1124.77 581.41L1124.1 581.08C1123.9 581 1123.8 580.96 1123.7 580.93L1123.51 580.87C1123.41 580.84 1123.31 580.81 1123.2 580.79L1122.98 580.74C1122.88 580.72 1122.77 580.71 1122.65 580.69L1122.41 580.66C1122.29 580.65 1122.11 580.64 1121.92 580.64L1111.22 580.64L1111.22 549.64L1113.84 547.61C1115.21 546.54 1116 544.96 1116 543.26L1116 534.62C1116 532.15 1114.32 529.97 1111.92 529.31C1111.72 529.26 1111.51 529.21 1111.28 529.18L1111.14 529.16C1110.64 529.09 1110.3 529.1 1109.95 529.14L1105.8 529.55L1103.56 526.04C1100.23 520.81 1095.99 516.31 1090.97 512.66L1090.79 512.53C1090.17 512.09 1089.5 511.63 1088.82 511.19L1088.51 510.99C1087.88 510.59 1087.23 510.19 1086.58 509.82L1086.22 509.61C1085.54 509.23 1084.86 508.86 1084.16 508.51L1083.93 508.39C1082.25 507.57 1080.6 506.86 1078.96 506.26L1078.77 506.19C1078.05 505.93 1077.28 505.68 1076.5 505.44L1075.79 505.24C1075.19 505.07 1074.59 504.91 1073.99 504.76C1073.73 504.69 1073.46 504.63 1073.19 504.57C1072.55 504.42 1071.99 504.31 1071.42 504.2C1071.1 504.14 1070.78 504.08 1070.45 504.03C1069.89 503.93 1069.33 503.85 1068.77 503.78L1068.53 503.75C1068.28 503.71 1068.04 503.68 1067.79 503.65C1067.19 503.58 1066.58 503.54 1065.97 503.49L1065.12 503.43C1063.1 503.31 1061.07 503.36 1059.06 503.26C1058.78 503.25 1058.49 503.23 1058.2 503.2L1057.67 503.17C1057.03 503.12 1056.39 503.08 1055.76 503.02C1055.38 502.98 1055.01 502.94 1054.65 502.89L1053.92 502.8C1053.44 502.75 1052.96 502.69 1052.48 502.62C1052.06 502.56 1051.63 502.49 1051.21 502.41L1050.5 502.29C1050.08 502.22 1049.66 502.15 1049.24 502.07C1048.73 501.97 1048.22 501.86 1047.72 501.75L1047.21 501.63C1046.83 501.55 1046.44 501.46 1046.05 501.37C1045.47 501.23 1044.88 501.07 1044.3 500.91L1043.94 500.81C1043.6 500.72 1043.26 500.63 1042.93 500.53C1042.27 500.33 1041.63 500.13 1040.99 499.92L1040.77 499.85C1040.46 499.74 1040.15 499.64 1039.84 499.54C1039.17 499.3 1038.5 499.05 1037.83 498.8C1037.42 498.64 1037.11 498.53 1036.81 498.41C1036.13 498.13 1035.44 497.84 1034.75 497.54L1033.87 497.15C1033.15 496.82 1032.45 496.49 1031.75 496.14L1030.99 495.76C1030.26 495.38 1029.53 495 1028.82 494.6L1028.18 494.23C1027.44 493.81 1026.7 493.37 1025.97 492.92L1025.46 492.59C1024.7 492.11 1023.95 491.62 1023.21 491.11L1022.92 490.91C1022.05 490.29 1021.29 489.74 1020.55 489.17L1020.36 489.03C1019.49 488.35 1018.72 487.74 1017.97 487.11L1017.84 487C1017.03 486.31 1016.26 485.63 1015.49 484.92C1014.93 484.39 1014.4 483.9 1013.89 483.4L921.23 408.38L920.98 408.13C916.22 403.36 909.89 400.74 903.16 400.74L827.15 400.74L827.15 381.76L843.64 381.76L843.64 356.9L762.28 356.9L762.28 381.76L781.02 381.76L781.02 400.74L723.67 400.74C683.07 400.74 655.19 406.48 641.7 435.05L614.65 492.3C610.41 501.29 604.67 508.85 597.6 514.78C593.13 518.53 589.38 523.02 586.47 528.13L582.67 534.76L576.54 530.2C575.86 529.7 574.75 529.11 573.28 529.11C570.25 529.11 567.78 531.58 567.78 534.62L567.78 543.26C567.78 546.25 570.18 548.7 573.15 548.77L573.28 548.77L579.77 548.65L580.17 555.13C581.26 573.08 592.46 589.21 608.87 596.65L611.3 592.02L617.33 595.24C619.69 596.51 622.21 597.59 624.81 598.46L627.62 599.41L628.84 602.11C636 618.07 651.91 628.76 669.37 629.33L670.14 629.35C670.65 629.37 671.17 629.37 671.68 629.35L672.34 629.33L685.88 629.35C686.39 629.37 686.9 629.37 687.41 629.35L689.14 629.3C705.3 628.44 720 618.98 727.52 604.61L729.43 600.98L847.15 600.98L849.05 604.61C856.75 619.31 871.81 628.78 888.37 629.33L889.14 629.35C889.65 629.37 890.17 629.37 890.68 629.35L891.34 629.33L904.88 629.35C905.39 629.37 905.91 629.37 906.42 629.35L908.14 629.3C924.3 628.44 939 618.98 946.52 604.61L948.43 600.98ZM823.96 400.74L784.21 400.74L784.21 381.76L823.96 381.76L823.96 400.74Z" />
					<g id="&lt;Group&gt;">
						<g id="&lt;Group&gt;">
							<g id="&lt;Group&gt;">
								<path id="&lt;Path&gt;" class="shp11" d="M561 543.26L561 534.62C561 527.86 566.53 522.33 573.29 522.33C580.04 522.33 585.57 527.86 585.57 534.62L585.57 543.26C585.57 550.02 580.04 555.55 573.29 555.55C566.53 555.55 561 550.02 561 543.26Z" />
								<path id="&lt;Path&gt;" class="shp11" d="M561 543.26L561 534.62C561 527.86 566.53 522.33 573.29 522.33C580.04 522.33 585.57 527.86 585.57 534.62L585.57 543.26C585.57 550.02 580.04 555.55 573.29 555.55C566.53 555.55 561 550.02 561 543.26Z" />
							</g>
							<g id="&lt;Group&gt;">
								<path id="&lt;Path&gt;" class="shp12" d="M1055.91 636.08L1054.57 636.11C1054.1 636.13 1053.63 636.15 1053.15 636.15C1052.67 636.15 1052.19 636.13 1051.72 636.11L1035.66 636.11L1027.76 629.67L1027.77 629.67C1011.38 620.68 1000.26 603.27 1000.26 583.27C1000.26 561.23 1013.75 542.35 1032.91 534.4L1033.54 530.53L1049.42 530.53C1050.65 530.44 1051.89 530.38 1053.15 530.38C1054.4 530.38 1055.64 530.44 1056.88 530.53L1057.59 530.53L1057.54 530.58C1084.69 532.81 1106.03 555.54 1106.03 583.27C1106.03 611.54 1083.83 634.64 1055.91 636.08Z" />
								<path id="&lt;Path&gt;" class="shp13" d="M1090.29 583.27C1090.29 612.47 1066.62 636.15 1037.41 636.15C1008.2 636.15 984.53 612.47 984.53 583.27C984.53 554.06 1008.2 530.38 1037.41 530.38C1066.62 530.38 1090.29 554.06 1090.29 583.27Z" />
								<path id="&lt;Path&gt;" class="shp14" d="M1074.39 583.27C1074.39 603.69 1057.83 620.25 1037.41 620.25C1016.98 620.25 1000.43 603.69 1000.43 583.27C1000.43 562.84 1016.98 546.28 1037.41 546.28C1057.83 546.28 1074.39 562.84 1074.39 583.27Z" />
								<path id="&lt;Path&gt;" class="shp11" d="M1042.2 619.93C1040.63 620.13 1039.03 620.25 1037.41 620.25C1016.98 620.25 1000.43 603.69 1000.43 583.27C1000.43 562.84 1016.98 546.28 1037.41 546.28C1039.03 546.28 1040.63 546.4 1042.2 546.6C1024.05 548.96 1010.02 564.47 1010.02 583.27C1010.02 602.06 1024.05 617.58 1042.2 619.93Z" />
								<path id="&lt;Path&gt;" class="shp11" d="M1058.91 583.27C1058.91 591.96 1051.86 599 1043.17 599C1034.48 599 1027.43 591.96 1027.43 583.27C1027.43 574.57 1034.48 567.53 1043.17 567.53C1051.86 567.53 1058.91 574.57 1058.91 583.27Z" />
								<path id="&lt;Path&gt;" class="shp15" d="M1053.15 583.27C1053.15 591.96 1046.1 599 1037.41 599C1028.72 599 1021.67 591.96 1021.67 583.27C1021.67 574.57 1028.72 567.53 1037.41 567.53C1046.1 567.53 1053.15 574.57 1053.15 583.27Z" />
								<path id="&lt;Path&gt;" class="shp13" d="M1028.43 583.27C1028.43 578.31 1032.45 574.29 1037.41 574.29C1042.36 574.29 1046.38 578.31 1046.38 583.27C1046.38 588.22 1042.36 592.24 1037.41 592.24C1032.45 592.24 1028.43 588.22 1028.43 583.27Z" />
								<path id="&lt;Path&gt;" class="shp11" d="M1038.65 592.14C1038.24 592.2 1037.83 592.24 1037.41 592.24C1032.45 592.24 1028.43 588.22 1028.43 583.27C1028.43 578.31 1032.45 574.29 1037.41 574.29C1037.83 574.29 1038.24 574.33 1038.65 574.39C1034.29 574.99 1030.92 578.73 1030.92 583.27C1030.92 587.8 1034.29 591.54 1038.65 592.14Z" />
							</g>
							<path id="&lt;Path&gt;" class="shp16" d="M1055.91 636.08L1054.57 636.11C1054.1 636.13 1053.63 636.15 1053.15 636.15C1052.67 636.15 1052.19 636.13 1051.72 636.11L1038.84 636.11C1038.36 636.13 1037.89 636.15 1037.41 636.15C1036.93 636.15 1036.45 636.13 1035.98 636.11L1035.66 636.11L1035.65 636.1C1007.26 635.17 984.53 611.88 984.53 583.27C984.53 555.36 1006.14 532.52 1033.54 530.54L1033.54 530.53L1033.68 530.53C1034.91 530.44 1036.15 530.38 1037.41 530.38C1038.66 530.38 1039.91 530.44 1041.14 530.53L1049.42 530.53C1050.65 530.44 1051.89 530.38 1053.15 530.38C1054.4 530.38 1055.64 530.44 1056.88 530.53L1057.59 530.53L1057.54 530.58C1084.69 532.81 1106.03 555.54 1106.03 583.27C1106.03 611.54 1083.83 634.64 1055.91 636.08Z" />
							<g id="&lt;Group&gt;">
								<path id="&lt;Path&gt;" class="shp13" d="M790.99 398.71L774.24 398.71L774.24 378.37L790.99 378.37L790.99 398.71Z" />
								<path id="&lt;Path&gt;" class="shp12" d="M790.99 398.71L782.62 398.71L782.62 378.37L790.99 378.37L790.99 398.71Z" />
							</g>
							<g id="&lt;Group&gt;">
								<path id="&lt;Path&gt;" class="shp13" d="M833.93 398.71L817.18 398.71L817.18 378.37L833.93 378.37L833.93 398.71Z" />
								<path id="&lt;Path&gt;" class="shp12" d="M833.93 398.71L825.56 398.71L825.56 378.37L833.93 378.37L833.93 398.71Z" />
							</g>
							<path id="&lt;Path&gt;" class="shp17" d="M1013.13 552.16L1013.13 581.99C1013.13 596.16 1001.54 607.76 987.37 607.76L640.18 607.76C609.6 607.76 584.58 582.74 584.58 552.16C584.58 535.11 592.36 519.8 604.54 509.59C611.08 504.11 616.18 497.11 619.82 489.4L637.38 452.24C659.27 405.9 705.93 393.96 757.18 393.96L798.29 393.96C806.78 393.96 814.91 397.33 820.91 403.33L913.56 478.35C925.22 490.01 941.04 496.56 957.54 496.56C988.11 496.56 1013.13 521.58 1013.13 552.16Z" />
							<path id="&lt;Path&gt;" class="shp18" d="M1118 552.16L1118 581.99C1118 596.16 1106.4 607.76 1092.23 607.76L745.04 607.76C714.47 607.76 689.45 582.74 689.45 552.16C689.45 535.11 697.23 519.8 709.41 509.59C715.94 504.11 721.04 497.11 724.69 489.4L771.87 407.15C775.67 399.1 783.78 393.96 792.68 393.96L903.16 393.96C911.64 393.96 919.78 397.33 925.78 403.33L1018.42 478.35C1030.09 490.01 1045.91 496.56 1062.4 496.56C1092.98 496.56 1118 521.58 1118 552.16Z" />
							<path id="&lt;Path&gt;" class="shp11" d="M793.89 486.39L793.89 607.76L745.04 607.76C714.47 607.76 689.45 582.74 689.45 552.16C689.45 535.11 697.23 519.8 709.41 509.59C715.94 504.11 721.04 497.11 724.69 489.4L726.41 486.39L793.89 486.39Z" />
							<path id="&lt;Path&gt;" class="shp17" d="M962.96 518.26L962.96 607.76L828.04 607.76L828.04 518.26L962.96 518.26Z" />
							<path id="&lt;Path&gt;" class="shp19" d="M1105.98 517.76L989.82 517.76L954.72 536.9L897.78 479.95L1020.1 479.95C1031.59 490.6 1046.68 496.56 1062.4 496.56C1080.02 496.56 1095.77 504.88 1105.98 517.76Z" />
							<path id="&lt;Path&gt;" class="shp20" d="M1105.98 517.76L989.82 517.76L954.72 536.9L926.15 508.32L1096.44 508.32C1099.98 511.08 1103.19 514.24 1105.98 517.76Z" />
							<path id="&lt;Path&gt;" class="shp21" d="M1095.13 567.53L1050.74 567.53L1050.74 555.55L1095.13 555.55L1095.13 567.53Z" />
							<g id="&lt;Group&gt;">
								<path id="&lt;Path&gt;" class="shp12" d="M689.41 636.08L688.07 636.11C687.6 636.13 687.13 636.15 686.65 636.15C686.17 636.15 685.69 636.13 685.22 636.11L669.16 636.11L661.26 629.67L661.27 629.67C644.88 620.68 633.76 603.27 633.76 583.27C633.76 561.23 647.25 542.35 666.41 534.4L667.04 530.53L682.92 530.53C684.15 530.44 685.39 530.38 686.65 530.38C687.9 530.38 689.14 530.44 690.38 530.53L691.09 530.53L691.04 530.58C718.19 532.81 739.53 555.54 739.53 583.27C739.53 611.54 717.33 634.64 689.41 636.08Z" />
								<path id="&lt;Path&gt;" class="shp13" d="M723.79 583.27C723.79 612.47 700.12 636.15 670.91 636.15C641.7 636.15 618.03 612.47 618.03 583.27C618.03 554.06 641.7 530.38 670.91 530.38C700.12 530.38 723.79 554.06 723.79 583.27Z" />
								<path id="&lt;Path&gt;" class="shp14" d="M707.89 583.27C707.89 603.69 691.33 620.25 670.91 620.25C650.48 620.25 633.93 603.69 633.93 583.27C633.93 562.84 650.48 546.28 670.91 546.28C691.33 546.28 707.89 562.84 707.89 583.27Z" />
								<path id="&lt;Path&gt;" class="shp11" d="M675.7 619.93C674.13 620.13 672.53 620.25 670.91 620.25C650.48 620.25 633.93 603.69 633.93 583.27C633.93 562.84 650.48 546.28 670.91 546.28C672.53 546.28 674.13 546.4 675.7 546.6C657.55 548.96 643.52 564.47 643.52 583.27C643.52 602.06 657.55 617.58 675.7 619.93Z" />
								<path id="&lt;Path&gt;" class="shp11" d="M692.41 583.27C692.41 591.96 685.36 599 676.67 599C667.98 599 660.93 591.96 660.93 583.27C660.93 574.57 667.98 567.53 676.67 567.53C685.36 567.53 692.41 574.57 692.41 583.27Z" />
								<path id="&lt;Path&gt;" class="shp15" d="M686.65 583.27C686.65 591.96 679.6 599 670.91 599C662.22 599 655.17 591.96 655.17 583.27C655.17 574.57 662.22 567.53 670.91 567.53C679.6 567.53 686.65 574.57 686.65 583.27Z" />
								<path id="&lt;Path&gt;" class="shp13" d="M661.93 583.27C661.93 578.31 665.95 574.29 670.91 574.29C675.87 574.29 679.88 578.31 679.88 583.27C679.88 588.22 675.87 592.24 670.91 592.24C665.95 592.24 661.93 588.22 661.93 583.27Z" />
								<path id="&lt;Path&gt;" class="shp11" d="M672.15 592.14C671.74 592.2 671.33 592.24 670.91 592.24C665.95 592.24 661.93 588.22 661.93 583.27C661.93 578.31 665.95 574.29 670.91 574.29C671.33 574.29 671.74 574.33 672.15 574.39C667.79 574.99 664.42 578.73 664.42 583.27C664.42 587.8 667.79 591.54 672.15 592.14Z" />
							</g>
							<g id="&lt;Group&gt;">
								<path id="&lt;Path&gt;" class="shp12" d="M908.41 636.08L907.07 636.11C906.6 636.13 906.13 636.15 905.65 636.15C905.17 636.15 904.69 636.13 904.22 636.11L888.16 636.11L880.26 629.67L880.27 629.67C863.88 620.68 852.76 603.27 852.76 583.27C852.76 561.23 866.25 542.35 885.41 534.4L886.04 530.53L901.92 530.53C903.15 530.44 904.39 530.38 905.65 530.38C906.9 530.38 908.14 530.44 909.38 530.53L910.09 530.53L910.04 530.58C937.19 532.81 958.53 555.54 958.53 583.27C958.53 611.54 936.33 634.64 908.41 636.08Z" />
								<path id="&lt;Path&gt;" class="shp13" d="M942.79 583.27C942.79 612.47 919.12 636.15 889.91 636.15C860.7 636.15 837.03 612.47 837.03 583.27C837.03 554.06 860.7 530.38 889.91 530.38C919.12 530.38 942.79 554.06 942.79 583.27Z" />
								<path id="&lt;Path&gt;" class="shp14" d="M926.89 583.27C926.89 603.69 910.33 620.25 889.91 620.25C869.48 620.25 852.93 603.69 852.93 583.27C852.93 562.84 869.48 546.28 889.91 546.28C910.33 546.28 926.89 562.84 926.89 583.27Z" />
								<path id="&lt;Path&gt;" class="shp11" d="M894.7 619.93C893.13 620.13 891.53 620.25 889.91 620.25C869.48 620.25 852.93 603.69 852.93 583.27C852.93 562.84 869.48 546.28 889.91 546.28C891.53 546.28 893.13 546.4 894.7 546.6C876.55 548.96 862.52 564.47 862.52 583.27C862.52 602.06 876.55 617.58 894.7 619.93Z" />
								<path id="&lt;Path&gt;" class="shp11" d="M911.41 583.27C911.41 591.96 904.36 599 895.67 599C886.98 599 879.93 591.96 879.93 583.27C879.93 574.57 886.98 567.53 895.67 567.53C904.36 567.53 911.41 574.57 911.41 583.27Z" />
								<path id="&lt;Path&gt;" class="shp15" d="M905.65 583.27C905.65 591.96 898.6 599 889.91 599C881.22 599 874.17 591.96 874.17 583.27C874.17 574.57 881.22 567.53 889.91 567.53C898.6 567.53 905.65 574.57 905.65 583.27Z" />
								<path id="&lt;Path&gt;" class="shp13" d="M880.93 583.27C880.93 578.31 884.95 574.29 889.91 574.29C894.86 574.29 898.88 578.31 898.88 583.27C898.88 588.22 894.86 592.24 889.91 592.24C884.95 592.24 880.93 588.22 880.93 583.27Z" />
								<path id="&lt;Path&gt;" class="shp11" d="M891.15 592.14C890.74 592.2 890.33 592.24 889.91 592.24C884.95 592.24 880.93 588.22 880.93 583.27C880.93 578.31 884.95 574.29 889.91 574.29C890.33 574.29 890.74 574.33 891.15 574.39C886.79 574.99 883.42 578.73 883.42 583.27C883.42 587.8 886.79 591.54 891.15 592.14Z" />
							</g>
							<path id="&lt;Path&gt;" class="shp22" d="M1001.84 552.16L1001.84 581.99C1001.84 596.16 990.24 607.76 976.07 607.76L956.85 607.76C952.62 607.76 949.51 603.68 950.76 599.64C952.47 594.12 953.39 588.25 953.39 582.16C953.39 548.79 925.7 521.88 892.04 523.17C861.58 524.34 836.72 549.04 835.38 579.48C835.06 586.62 836.01 593.5 838.03 599.9C839.25 603.79 836.39 607.76 832.31 607.76L735.71 607.76C730.62 607.76 727.02 602.9 728.38 598C729.78 592.96 730.53 587.65 730.53 582.16C730.53 548.14 701.76 520.84 667.22 523.27C638.59 525.29 615.29 548.12 612.7 576.71C612.04 584 612.72 591.04 614.52 597.63C615.6 601.6 611.6 605.15 607.79 603.58C587.59 595.23 573.29 575.28 573.29 552.16C573.29 535.11 581.06 519.8 593.24 509.59C599.78 504.11 604.88 497.11 608.52 489.4L635.57 432.15C651.67 398.07 685.98 393.96 723.67 393.96L787 393.96C795.48 393.96 803.62 397.33 809.61 403.33L902.26 478.35C913.92 490.01 929.74 496.56 946.24 496.56C976.82 496.56 1001.84 521.58 1001.84 552.16Z" />
							<path id="&lt;Path&gt;" class="shp23" d="M639.75 470.38L650 444.48C658.3 423.54 678.54 409.78 701.06 409.78L706 409.78C710.12 409.78 713.46 413.12 713.46 417.24L713.46 471.25C713.46 474.5 710.83 477.13 707.59 477.13L644.33 477.13C640.85 477.13 638.47 473.62 639.75 470.38Z" />
							<path id="&lt;Path&gt;" class="shp24" d="M639.75 470.38L650 444.48C658.3 423.54 678.54 409.78 701.06 409.78L706 409.78C710.12 409.78 713.46 413.12 713.46 417.24L713.46 471.25C713.46 474.5 710.83 477.13 707.59 477.13L644.33 477.13C640.85 477.13 638.47 473.62 639.75 470.38Z" />
							<path id="&lt;Path&gt;" class="shp25" d="M707.59 477.13L697.43 477.13C693.94 477.13 691.56 473.62 692.84 470.38L703.1 444.48C705.57 438.23 709.12 432.63 713.46 427.83L713.46 471.25C713.46 474.5 710.83 477.13 707.59 477.13Z" />
							<path id="&lt;Path&gt;" class="shp23" d="M760.47 477.13L745.41 477.13C742.16 477.13 739.53 474.5 739.53 471.25L739.53 417.24C739.53 413.12 742.87 409.78 746.99 409.78L787.21 409.78C792.07 409.78 796.73 411.76 800.11 415.26L865.22 468.6C868.31 471.79 866.05 477.13 861.61 477.13L760.47 477.13Z" />
							<path id="&lt;Path&gt;" class="shp25" d="M861.61 477.13L807.8 477.13L792.73 477.13C789.49 477.13 786.86 474.5 786.86 471.25L786.86 417.24C786.86 414.11 788.79 411.44 791.52 410.33C794.76 411.13 797.75 412.81 800.11 415.26L865.22 468.6C868.31 471.79 866.05 477.13 861.61 477.13Z" />
							<path id="&lt;Path&gt;" class="shp25" d="M760.68 477.13L760.47 477.13L745.41 477.13C742.16 477.13 739.53 474.5 739.53 471.25L739.53 417.24C739.53 414.58 740.93 412.25 743.03 410.93C746.64 410.18 750.36 409.78 754.15 409.78L759.1 409.78C763.22 409.78 766.55 413.12 766.55 417.24L766.55 471.25C766.55 474.5 763.92 477.13 760.68 477.13Z" />
							<g id="&lt;Group&gt;">
								<path id="&lt;Path&gt;" class="shp13" d="M850.42 388.54L755.5 388.54L755.5 350.12L850.42 350.12L850.42 388.54Z" />
								<path id="&lt;Path&gt;" class="shp12" d="M850.42 350.12L850.42 388.54L771.32 388.54L771.32 350.12L850.42 350.12Z" />
							</g>
							<path id="&lt;Path&gt;" class="shp13" d="M1121.92 599L991.13 599C984.22 599 978.56 593.35 978.56 586.43C978.56 579.51 984.22 573.86 991.13 573.86L1121.92 573.86C1128.84 573.86 1134.5 579.51 1134.5 586.43C1134.5 593.35 1128.84 599 1121.92 599Z" />
							<path id="&lt;Path&gt;" class="shp26" d="M978.96 583.35C980.34 577.91 985.28 573.86 991.13 573.86L1121.92 573.86C1127.77 573.86 1132.71 577.91 1134.1 583.35L978.96 583.35Z" />
							<path id="&lt;Path&gt;" class="shp12" d="M995.55 599L991.13 599C984.22 599 978.56 593.35 978.56 586.43C978.56 579.51 984.22 573.86 991.13 573.86L995.55 573.86C1002.46 573.86 1008.12 579.51 1008.12 586.43C1008.12 593.35 1002.46 599 995.55 599Z" />
							<g id="&lt;Group&gt;">
								<path id="&lt;Path&gt;" class="shp11" d="M1026.1 555.55C1019.34 555.55 1013.81 550.02 1013.81 543.26L1013.81 534.62C1013.81 527.86 1019.34 522.33 1026.1 522.33C1032.86 522.33 1038.39 527.86 1038.39 534.62L1038.39 543.26C1038.39 550.02 1032.86 555.55 1026.1 555.55Z" />
								<path id="&lt;Path&gt;" class="shp11" d="M1026.1 555.55C1019.34 555.55 1013.81 550.02 1013.81 543.26L1013.81 534.62C1013.81 527.86 1019.34 522.33 1026.1 522.33C1032.86 522.33 1038.39 527.86 1038.39 534.62L1038.39 543.26C1038.39 550.02 1032.86 555.55 1026.1 555.55Z" />
								<path id="&lt;Path&gt;" class="shp27" d="M1033.81 538.94C1033.81 543.71 1029.94 547.58 1025.17 547.58C1020.4 547.58 1016.53 543.71 1016.53 538.94C1016.53 534.16 1020.4 530.29 1025.17 530.29C1029.94 530.29 1033.81 534.16 1033.81 538.94Z" />
								<path id="&lt;Path&gt;" class="shp28" d="M1026.75 547.43C1026.24 547.53 1025.71 547.58 1025.17 547.58C1020.4 547.58 1016.53 543.71 1016.53 538.94C1016.53 534.16 1020.4 530.29 1025.17 530.29C1025.71 530.29 1026.24 530.35 1026.75 530.45C1022.73 531.19 1019.68 534.71 1019.68 538.94C1019.68 543.17 1022.73 546.69 1026.75 547.43Z" />
								<path id="&lt;Path&gt;" class="shp14" d="M1029.32 555.1C1028.29 555.39 1027.22 555.55 1026.1 555.55C1019.34 555.55 1013.81 550.02 1013.81 543.26L1013.81 534.62C1013.81 527.86 1019.34 522.33 1026.1 522.33C1027.22 522.33 1028.29 522.49 1029.32 522.77C1024.11 524.2 1020.25 528.97 1020.25 534.62L1020.25 543.26C1020.25 548.91 1024.11 553.68 1029.32 555.1Z" />
							</g>
							<g id="&lt;Group&gt;">
								<path id="&lt;Path&gt;" class="shp11" d="M1110.49 555.55C1103.74 555.55 1098.21 550.02 1098.21 543.26L1098.21 534.62C1098.21 527.86 1103.74 522.33 1110.49 522.33C1117.25 522.33 1122.78 527.86 1122.78 534.62L1122.78 543.26C1122.78 550.02 1117.25 555.55 1110.49 555.55Z" />
								<path id="&lt;Path&gt;" class="shp11" d="M1110.49 555.55C1103.74 555.55 1098.21 550.02 1098.21 543.26L1098.21 534.62C1098.21 527.86 1103.74 522.33 1110.49 522.33C1117.25 522.33 1122.78 527.86 1122.78 534.62L1122.78 543.26C1122.78 550.02 1117.25 555.55 1110.49 555.55Z" />
								<path id="&lt;Path&gt;" class="shp27" d="M1118.21 538.94C1118.21 543.71 1114.34 547.58 1109.56 547.58C1104.79 547.58 1100.92 543.71 1100.92 538.94C1100.92 534.16 1104.79 530.29 1109.56 530.29C1114.34 530.29 1118.21 534.16 1118.21 538.94Z" />
								<path id="&lt;Path&gt;" class="shp28" d="M1111.14 547.43C1110.63 547.53 1110.1 547.58 1109.56 547.58C1104.79 547.58 1100.92 543.71 1100.92 538.94C1100.92 534.16 1104.79 530.29 1109.56 530.29C1110.1 530.29 1110.63 530.35 1111.14 530.45C1107.12 531.19 1104.08 534.71 1104.08 538.94C1104.08 543.17 1107.12 546.69 1111.14 547.43Z" />
								<path id="&lt;Path&gt;" class="shp14" d="M1113.71 555.1C1112.69 555.39 1111.61 555.55 1110.49 555.55C1103.74 555.55 1098.21 550.02 1098.21 543.26L1098.21 534.62C1098.21 527.86 1103.74 522.33 1110.49 522.33C1111.61 522.33 1112.69 522.49 1113.71 522.77C1108.51 524.2 1104.65 528.97 1104.65 534.62L1104.65 543.26C1104.65 548.91 1108.51 553.68 1113.71 555.1Z" />
							</g>
							<path id="&lt;Path&gt;" class="shp13" d="M1098.21 567.53L1053.82 567.53L1053.82 555.55L1098.21 555.55L1098.21 567.53Z" />
							<path id="&lt;Path&gt;" class="shp23" d="M831.55 378.37L796.94 378.37C791.78 378.37 787.56 374.15 787.56 368.99C787.56 363.83 791.78 359.61 796.94 359.61L831.55 359.61C836.7 359.61 840.93 363.83 840.93 368.99C840.93 374.15 836.7 378.37 831.55 378.37Z" />
							<g id="&lt;Group&gt;">
								<path id="&lt;Path&gt;" class="shp12" d="M632.37 500.28L620.81 500.28L620.81 488.72L632.37 488.72L632.37 500.28Z" />
								<path id="&lt;Path&gt;" class="shp12" d="M655.48 500.28L643.93 500.28L643.93 488.72L655.48 488.72L655.48 500.28Z" />
								<path id="&lt;Path&gt;" class="shp12" d="M678.6 500.28L667.04 500.28L667.04 488.72L678.6 488.72L678.6 500.28Z" />
								<path id="&lt;Path&gt;" class="shp12" d="M701.72 500.28L690.16 500.28L690.16 488.72L701.72 488.72L701.72 500.28Z" />
								<path id="&lt;Path&gt;" class="shp12" d="M643.93 511.84L632.37 511.84L632.37 500.28L643.93 500.28L643.93 511.84Z" />
								<path id="&lt;Path&gt;" class="shp12" d="M667.04 511.84L655.48 511.84L655.48 500.28L667.04 500.28L667.04 511.84Z" />
								<path id="&lt;Path&gt;" class="shp12" d="M690.16 511.84L678.6 511.84L678.6 500.28L690.16 500.28L690.16 511.84Z" />
								<path id="&lt;Path&gt;" class="shp12" d="M713.28 511.84L701.72 511.84L701.72 500.28L713.28 500.28L713.28 511.84Z" />
							</g>
							<path id="&lt;Path&gt;" class="shp18" d="M732.82 607.19C735.8 599.73 737.45 591.62 737.45 583.12C737.45 547.18 708.21 517.94 672.27 517.94C636.32 517.94 607.08 547.18 607.08 583.12C607.08 590.38 608.29 597.36 610.49 603.88C610.03 603.96 609.55 603.97 609.07 603.91C606.91 597.36 605.73 590.38 605.73 583.12C605.73 546.43 635.57 516.58 672.27 516.58C708.96 516.58 738.8 546.43 738.8 583.12C738.8 591.76 737.13 600.01 734.13 607.58C733.67 607.49 733.24 607.36 732.82 607.19Z" />
							<path id="&lt;Path&gt;" class="shp18" d="M955.01 607.48C958.06 599.95 959.75 591.73 959.75 583.12C959.75 547.18 930.51 517.94 894.57 517.94C858.62 517.94 829.38 547.18 829.38 583.12C829.38 591.73 831.08 599.94 834.12 607.47C833.69 607.61 833.24 607.69 832.76 607.73C829.72 600.11 828.03 591.81 828.03 583.12C828.03 546.43 857.88 516.58 894.57 516.58C931.26 516.58 961.11 546.43 961.11 583.12C961.11 591.81 959.41 600.11 956.37 607.73C955.9 607.69 955.45 607.61 955.01 607.48Z" />
							<path id="&lt;Path&gt;" class="shp23" d="M822.18 599L747.58 599C745.72 599 744.2 597.48 744.2 595.62C744.2 593.76 745.72 592.24 747.58 592.24L822.18 592.24C824.04 592.24 825.56 593.76 825.56 595.62C825.56 597.48 824.04 599 822.18 599Z" />
							<path id="&lt;Path&gt;" class="shp23" d="M838.73 409.78L911.54 409.78C915.27 409.78 918.9 411.07 921.8 413.42L995.54 473.17C997.17 474.49 996.24 477.13 994.14 477.13L924.55 477.13C919.57 477.13 914.74 475.43 910.85 472.32L837.42 413.49C835.89 412.26 836.76 409.78 838.73 409.78Z" />
							<path id="&lt;Path&gt;" class="shp29" d="M955.01 472.32C958.9 475.43 963.73 477.13 968.71 477.13L954.57 477.13C949.59 477.13 944.75 475.43 940.87 472.32L867.43 413.49C865.9 412.26 866.77 409.78 868.74 409.78L882.88 409.78C880.91 409.78 880.04 412.26 881.58 413.49L955.01 472.32Z" />
							<path id="&lt;Path&gt;" class="shp29" d="M980.12 472.32C984.01 475.43 988.84 477.13 993.82 477.13L979.68 477.13C974.7 477.13 969.87 475.43 965.98 472.32L892.55 413.49C891.01 412.26 891.88 409.78 893.85 409.78L907.99 409.78C906.02 409.78 905.15 412.26 906.69 413.49L980.12 472.32Z" />
							<path id="&lt;Path&gt;" class="shp29" d="M848.2 472.32C852.08 475.43 856.92 477.13 861.9 477.13L847.75 477.13C842.77 477.13 837.94 475.43 834.05 472.32L760.62 413.49C759.09 412.26 759.96 409.78 761.93 409.78L776.07 409.78C774.1 409.78 773.23 412.26 774.77 413.49L848.2 472.32Z" />
							<path id="&lt;Path&gt;" class="shp25" d="M910.85 472.32L837.42 413.49C836.2 412.51 836.52 410.76 837.69 410.08C841.38 410.74 844.8 412.52 847.44 415.26L912.55 468.6C914.12 470.22 914.3 472.39 913.53 474.14C912.6 473.59 911.7 473 910.85 472.32Z" />
							<path id="&lt;Path&gt;" class="shp18" d="M811.47 587.11L738.8 587.11L738.8 585.75L811.47 585.75C816.5 585.75 820.59 581.66 820.59 576.64L820.59 558.16C820.59 530.36 843.2 507.74 871 507.74C875.55 507.74 879.26 504.04 879.26 499.49L879.26 477.93C879.26 472.74 876.94 467.89 872.92 464.62L805 409.53C800.88 406.2 795.7 404.36 790.4 404.36L741.83 404.36C735.79 404.36 730.88 409.27 730.88 415.31L730.88 553.27L729.52 553.27L729.52 415.31C729.52 408.52 735.04 403 741.83 403L790.4 403C796.01 403 801.5 404.95 805.85 408.48L873.77 463.57C878.12 467.1 880.61 472.33 880.61 477.93L880.61 499.49C880.61 504.79 876.3 509.1 871 509.1C843.95 509.1 821.94 531.11 821.94 558.16L821.94 576.64C821.94 582.41 817.25 587.11 811.47 587.11Z" />
							<path id="&lt;Path&gt;" class="shp12" d="M798.1 508.42L762.46 508.42C758.63 508.42 755.5 505.29 755.5 501.46C755.5 497.63 758.63 494.5 762.46 494.5L798.1 494.5C801.93 494.5 805.07 497.63 805.07 501.46C805.07 505.29 801.93 508.42 798.1 508.42Z" />
							<g id="&lt;Group&gt;">
								<path id="&lt;Path&gt;" class="shp30" d="M1124.21 579.96L1066.82 579.96C1065.63 579.96 1064.66 578.99 1064.66 577.8C1064.66 576.62 1065.63 575.65 1066.82 575.65L1124.21 575.65C1125.39 575.65 1126.36 576.62 1126.36 577.8C1126.36 578.99 1125.39 579.96 1124.21 579.96Z" />
								<path id="&lt;Path&gt;" class="shp30" d="M1058.02 579.96L1051.82 579.96C1050.63 579.96 1049.66 578.99 1049.66 577.8C1049.66 576.62 1050.63 575.65 1051.82 575.65L1058.02 575.65C1059.2 575.65 1060.17 576.62 1060.17 577.8C1060.17 578.99 1059.2 579.96 1058.02 579.96Z" />
							</g>
						</g>
						<g id="&lt;Group&gt;">
							<path id="&lt;Path&gt;" class="shp18" d="M880.73 507.18L870.02 507.18C864.17 507.18 859.38 502.39 859.38 496.54C859.38 490.68 864.17 485.89 870.02 485.89L880.73 485.89C886.58 485.89 891.37 490.68 891.37 496.54C891.37 502.39 886.58 507.18 880.73 507.18Z" />
							<path id="&lt;Path&gt;" class="shp31" d="M886.6 507.18L875.9 507.18C870.04 507.18 865.25 502.39 865.25 496.54C865.25 490.68 870.04 485.89 875.9 485.89L886.6 485.89C892.46 485.89 897.25 490.68 897.25 496.54C897.25 502.39 892.46 507.18 886.6 507.18Z" />
						</g>
					</g>
				</g>
				<g id="&lt;Group&gt;">
					<path id="&lt;Path&gt;" class="shp10" d="M517.14 432.7C517.14 481.01 477.97 520.18 429.65 520.18C381.34 520.18 342.17 481.01 342.17 432.7C342.17 384.39 381.34 345.22 429.65 345.22C477.97 345.22 517.14 384.39 517.14 432.7Z" />
					<path id="&lt;Path&gt;" class="shp32" d="M473.4 432.7C473.4 456.86 453.82 476.45 429.65 476.45C405.49 476.45 385.91 456.86 385.91 432.7C385.91 408.54 405.49 388.96 429.65 388.96C453.82 388.96 473.4 408.54 473.4 432.7Z" />
				</g>
				<g id="&lt;Group&gt;">
					<g id="&lt;Group&gt;">
						<path id="&lt;Compound Path&gt;" fill-rule="evenodd" class="shp33" d="M589.54 152.12C589.54 208.01 538.95 300.53 437.75 429.69C336.56 300.53 285.96 208.01 285.96 152.12C285.96 68.29 353.92 0.33 437.75 0.33C521.58 0.33 589.54 68.29 589.54 152.12ZM520.15 147.78C520.15 102.28 483.26 65.38 437.75 65.38C392.24 65.38 355.35 102.28 355.35 147.78C355.35 193.29 392.24 230.19 437.75 230.19C483.26 230.19 520.15 193.29 520.15 147.78Z" />
					</g>
					<path id="&lt;Path&gt;" class="shp34" d="M589.54 152.12C589.54 208.01 538.95 300.53 437.75 429.69C396.13 376.54 360.39 323.53 330.52 270.67L405.94 270.67C434.04 270.67 457.61 251.56 464.53 225.64C496.88 214.52 520.15 183.9 520.15 147.78C520.15 112.46 497.9 82.42 466.66 70.69L466.66 3.16C536.66 16.66 589.54 78.18 589.54 152.12Z" />
					<path id="&lt;Compound Path&gt;" fill-rule="evenodd" class="shp35" d="M437.76 247.54C383.16 247.54 338.73 203.12 338.73 148.51C338.73 93.9 383.16 49.48 437.76 49.48C492.37 49.48 536.79 93.9 536.79 148.51C536.79 203.12 492.37 247.54 437.76 247.54ZM437.76 66.82C392.72 66.82 356.08 103.47 356.08 148.51C356.08 193.54 392.72 230.19 437.76 230.19C482.79 230.19 519.44 193.54 519.44 148.51C519.44 103.47 482.79 66.82 437.76 66.82Z" />
					<path id="&lt;Path&gt;" class="shp32" d="M437.72 247.54C425.7 247.54 413.93 245.39 402.74 241.17L408.87 224.95C418.1 228.43 427.8 230.19 437.72 230.19C437.73 230.19 437.75 230.19 437.76 230.19C454.52 230.19 470.62 225.15 484.32 215.63L494.21 229.88C477.59 241.43 458.08 247.53 437.76 247.54C437.75 247.54 437.73 247.54 437.72 247.54Z" />
					<path id="&lt;Path&gt;" class="shp36" d="M489.27 231.44C486.52 231.44 483.82 230.13 482.13 227.71C479.4 223.77 480.38 218.37 484.32 215.63C506.31 200.35 519.44 175.26 519.44 148.51C519.44 137.25 517.2 126.37 512.78 116.15C510.88 111.75 512.91 106.65 517.3 104.74C521.69 102.83 526.81 104.87 528.71 109.26C534.07 121.67 536.79 134.87 536.79 148.51C536.79 180.94 520.88 211.36 494.21 229.88C492.7 230.93 490.97 231.44 489.27 231.44Z" />
					<path id="&lt;Path&gt;" class="shp36" d="M355.22 193.99C351.9 193.99 348.74 192.07 347.29 188.85C341.61 176.11 338.73 162.54 338.73 148.51C338.73 96.14 379.65 52.71 431.88 49.65C436.58 49.31 440.77 53.02 441.04 57.8C441.33 62.58 437.69 66.69 432.9 66.96C389.83 69.49 356.08 105.31 356.08 148.51C356.08 160.09 358.45 171.28 363.13 181.78C365.09 186.16 363.13 191.28 358.75 193.23C357.6 193.75 356.4 193.99 355.22 193.99Z" />
					<path id="&lt;Path&gt;" class="shp32" d="M313.41 94.75C312.07 94.75 310.72 94.44 309.44 93.79C305.18 91.59 303.52 86.36 305.72 82.1C323.22 48.14 352.57 22.16 388.34 8.97C392.77 7.29 397.81 9.61 399.48 14.11C401.13 18.6 398.84 23.59 394.34 25.24C362.65 36.94 336.65 59.95 321.13 90.05C319.58 93.04 316.55 94.75 313.41 94.75Z" />
				</g>
				<path id="&lt;Path&gt;" class="shp33" d="M739.53 66.82L755.5 273.21L707.89 148.51L739.53 66.82Z" />
				<path id="&lt;Path&gt;" class="shp33" d="M802.96 297.54L913.97 121.81L917.68 193.99L802.96 297.54Z" />
				<g id="&lt;Group&gt;">
					<path id="&lt;Path&gt;" class="shp33" d="M250.28 372.64C250.28 441.62 194.37 497.54 125.39 497.54C56.41 497.54 0.49 441.62 0.49 372.64C0.49 303.66 56.41 247.74 125.39 247.74C194.37 247.74 250.28 303.66 250.28 372.64Z" />
					<g id="&lt;Group&gt;">
						<path id="&lt;Path&gt;" class="shp10" d="M173.62 419.01L180.47 459.36L128.46 459.36L118.98 459.36L66.97 459.36L73.83 419.01C77.71 408.21 87.13 400.69 98.34 398.24C98.48 398.21 98.61 398.18 98.75 398.15C100.02 397.85 101.25 397.46 102.43 396.99C119.51 390.17 119.51 365.05 102.43 358.24C101.25 357.76 100.02 357.38 98.75 357.08C98.61 357.05 98.48 357.02 98.34 356.99C87.13 354.54 77.71 347.02 73.83 336.22L66.97 295.87L118.98 295.87L128.46 295.87L180.47 295.87L173.62 336.22C169.73 347.02 160.32 354.54 149.11 356.99C148.97 357.02 148.83 357.05 148.7 357.08C148.59 357.11 148.49 357.13 148.39 357.15C127.41 362.28 127.41 392.95 148.39 398.07C148.49 398.1 148.59 398.12 148.7 398.15C148.83 398.18 148.97 398.21 149.11 398.24C160.32 400.69 169.73 408.21 173.62 419.01Z" />
						<path id="&lt;Path&gt;" class="shp3" d="M184.71 298.43L62.73 298.43C62.16 298.43 61.7 297.97 61.7 297.4L61.7 292.43C61.7 291.86 62.16 291.4 62.73 291.4L184.71 291.4C185.28 291.4 185.75 291.86 185.75 292.43L185.75 297.4C185.75 297.97 185.28 298.43 184.71 298.43Z" />
						<path id="&lt;Path&gt;" class="shp3" d="M184.71 462.98L62.73 462.98C62.16 462.98 61.7 462.51 61.7 461.95L61.7 456.98C61.7 456.41 62.16 455.95 62.73 455.95L184.71 455.95C185.28 455.95 185.75 456.41 185.75 456.98L185.75 461.95C185.75 462.51 185.28 462.98 184.71 462.98Z" />
						<path id="&lt;Path&gt;" class="shp22" d="M77.84 433.99L166.51 433.99L169.49 451.47L74.43 451.47L77.84 433.99Z" />
						<path id="&lt;Path&gt;" class="shp22" d="M166.3 331.04C164.38 341.49 159.69 347.56 152.23 349.27C139.87 350.76 132.73 355.13 130.81 362.37C127.04 374.31 126.44 398.68 129 435.48L126.65 435.48L124.09 435.48L122.18 435.48L119.62 435.48L117.27 435.48C119.83 398.68 119.23 374.31 115.46 362.37C113.54 355.13 106.4 350.76 94.04 349.27C86.58 347.56 81.89 341.49 79.97 331.04L166.3 331.04Z" />
					</g>
				</g>
				<g id="&lt;Group&gt;">
					<path id="&lt;Path&gt;" class="shp33" d="M358.84 607.76C358.84 655.95 319.78 695.02 271.58 695.02C223.39 695.02 184.32 655.95 184.32 607.76C184.32 559.56 223.39 520.49 271.58 520.49C319.78 520.49 358.84 559.56 358.84 607.76Z" />
					<g id="&lt;Group&gt;">
						<path id="&lt;Path&gt;" class="shp10" d="M318.68 596.04L318.68 632.59C318.68 643.07 310.2 651.5 299.76 651.5L243.01 651.5C232.54 651.5 224.1 643.07 224.1 632.59L224.1 596.04C224.1 595.1 224.17 594.19 224.33 593.28C225.65 584.13 233.48 577.13 243.01 577.13L299.76 577.13C309.26 577.13 317.13 584.13 318.45 593.28C318.6 594.19 318.68 595.1 318.68 596.04Z" />
						<path id="&lt;Path&gt;" class="shp22" d="M267.13 651.5L267.13 601.79L267.13 593.28L267.13 577.13L275.64 577.13L275.64 593.28L275.64 601.79L275.64 651.5L267.13 651.5Z" />
						<path id="&lt;Path&gt;" class="shp22" d="M318.68 596.04L318.68 601.79L224.1 601.79L224.1 596.04C224.1 595.1 224.17 594.19 224.33 593.28L318.45 593.28C318.6 594.19 318.68 595.1 318.68 596.04Z" />
						<g id="&lt;Group&gt;">
							<path id="&lt;Compound Path&gt;" fill-rule="evenodd" class="shp22" d="M273.47 585.5L251.54 569.13C246.11 565.08 244.67 557.41 248.25 551.67C250.12 548.67 253.04 546.6 256.49 545.82C259.93 545.04 263.46 545.65 266.44 547.55L267.4 548.16C271.21 550.59 273.47 554.72 273.47 559.23L273.47 585.5ZM259.4 551.26C258.85 551.26 258.3 551.32 257.76 551.44C255.83 551.88 254.19 553.04 253.15 554.72C251.1 557.99 251.9 562.2 254.99 564.51L267.71 574L267.71 559.23C267.71 556.7 266.43 554.39 264.3 553.03L263.34 552.42C262.14 551.65 260.78 551.26 259.4 551.26Z" />
							<path id="&lt;Compound Path&gt;" fill-rule="evenodd" class="shp22" d="M269.3 585.5L269.3 559.23C269.3 554.72 271.57 550.59 275.37 548.16L276.34 547.55C279.32 545.65 282.85 545.04 286.29 545.82C289.74 546.6 292.66 548.67 294.53 551.67C298.11 557.41 296.67 565.08 291.24 569.13L269.3 585.5ZM283.38 551.26C281.99 551.26 280.64 551.65 279.44 552.41L278.47 553.03C276.34 554.39 275.07 556.7 275.07 559.23L275.07 574L287.79 564.51C290.88 562.2 291.67 557.99 289.63 554.72C288.59 553.04 286.95 551.88 285.02 551.44C284.47 551.32 283.92 551.26 283.38 551.26Z" />
						</g>
					</g>
				</g>
				<path id="&lt;Path&gt;" class="shp33" d="M206.18 401.29L275.07 452.48L214.69 442.73L206.18 401.29Z" />
				<path id="&lt;Path&gt;" class="shp33" d="M338.73 583.27L407.85 583.27L338.73 614.32L338.73 583.27Z" />
				<g id="&lt;Group&gt;">
					<path id="&lt;Compound Path&gt;" class="shp5" d="M974.05 256.84C982.46 257.73 989.22 260.24 994.31 264.37C1000.7 269.63 1003.9 277.11 1003.9 286.81L977.57 286.81C976.52 283.99 975.06 282.04 973.2 280.99C971.82 280.18 970.04 279.78 967.86 279.78C966.57 279.78 965.72 279.82 965.31 279.9C960.54 280.38 958.15 282.81 958.15 287.18C958.15 289.12 959.33 290.54 961.67 291.43C962.8 291.83 968.35 292.8 978.3 294.34C979.75 294.66 980.84 294.87 981.57 294.95C998.48 297.94 1006.93 305.34 1006.93 317.15C1006.93 327.35 1002.93 335.03 994.92 340.21C988.29 344.41 981.37 347.08 974.17 348.22L974.41 358.89L959.97 356.71L959.97 348.09C951.72 346.88 945.09 343.81 940.07 338.87C934.98 334.02 931.98 327.71 931.09 319.94L930.49 315.45L936.07 314.85C939.87 314.44 944.88 314.24 951.11 314.24C955.24 314.24 957.95 314.32 959.25 314.48C960.22 314.56 960.7 315.05 960.7 315.94C960.7 317.88 961.71 319.66 963.73 321.28C965.76 322.9 967.98 323.71 970.41 323.71C973.16 323.71 975.58 322.94 977.69 321.4C979.87 319.86 980.96 318.04 980.96 315.94C980.96 311.49 977.16 308.78 969.56 307.81L955.73 305.99C948.61 305.1 943.02 302.71 938.98 298.83C935.26 295.27 933.4 291.15 933.4 286.45C933.4 268.9 942.3 259.07 960.09 256.96L960.22 247.99L962.76 247.99C964.79 247.99 968.55 247.91 974.05 247.74L974.05 256.84Z" />
				</g>
				<g id="&lt;Group&gt;">
					<path id="&lt;Compound Path&gt;" class="shp5" d="M1047.53 338.89C1051.91 342.48 1054.77 346.37 1056.1 350.56C1057.74 355.85 1056.78 361.22 1053.2 366.65L1038.47 356.95C1038.92 354.98 1038.82 353.36 1038.17 352.09C1037.69 351.13 1036.85 350.25 1035.63 349.44C1034.9 348.96 1034.41 348.67 1034.16 348.57C1031.31 347.08 1029.08 347.56 1027.47 350.01C1026.75 351.1 1026.89 352.32 1027.87 353.68C1028.36 354.32 1031.1 356.91 1036.11 361.43C1036.8 362.15 1037.34 362.66 1037.71 362.98C1046.07 370.88 1048.08 378.13 1043.73 384.74C1039.98 390.45 1034.91 393.27 1028.52 393.22C1023.26 393.13 1018.4 392.08 1013.96 390.06L1010.16 396.12L1002.89 389.59L1006.06 384.76C1001.89 381.05 999.31 376.89 998.32 372.28C997.25 367.68 997.9 363.05 1000.26 358.38L1001.58 355.64L1004.92 357.36C1007.2 358.53 1010.08 360.26 1013.57 362.56C1015.88 364.08 1017.36 365.12 1018.03 365.69C1018.54 366.09 1018.63 366.54 1018.31 367.04C1017.59 368.13 1017.5 369.49 1018.04 371.14C1018.57 372.79 1019.52 374.07 1020.88 374.96C1022.42 375.97 1024.06 376.44 1025.8 376.35C1027.59 376.3 1028.87 375.68 1029.64 374.5C1031.28 372.01 1030.15 369.1 1026.26 365.75L1019.19 359.64C1015.53 356.52 1013.28 353.13 1012.45 349.47C1011.68 346.11 1012.16 343.11 1013.89 340.49C1020.35 330.66 1028.95 328.44 1039.68 333.82L1043.05 328.84L1044.48 329.78C1045.61 330.52 1047.75 331.86 1050.88 333.79L1047.53 338.89Z" />
				</g>
				<g id="&lt;Group&gt;">
					<path id="&lt;Compound Path&gt;" class="shp5" d="M1084.42 406.71C1085.78 410.26 1086.15 413.47 1085.53 416.34C1084.73 419.97 1082.38 422.77 1078.5 424.74L1073.15 414.21C1074.07 413.21 1074.55 412.24 1074.59 411.28C1074.63 410.56 1074.44 409.77 1073.99 408.9C1073.73 408.38 1073.54 408.05 1073.42 407.9C1072.26 406.09 1070.8 405.63 1069.06 406.52C1068.28 406.91 1067.95 407.67 1068.07 408.79C1068.14 409.32 1068.88 411.74 1070.29 416.03C1070.45 416.68 1070.6 417.16 1070.71 417.46C1072.95 424.84 1071.71 429.72 1066.98 432.12C1062.91 434.19 1059.02 434.16 1055.32 432C1052.29 430.21 1049.82 427.98 1047.9 425.33L1043.68 427.6L1041.61 421.38L1045.06 419.63C1043.87 416.08 1043.75 412.8 1044.7 409.79C1045.61 406.77 1047.52 404.29 1050.45 402.35L1052.12 401.2L1053.5 403.31C1054.43 404.75 1055.54 406.71 1056.8 409.2C1057.64 410.85 1058.16 411.95 1058.36 412.51C1058.52 412.91 1058.43 413.2 1058.07 413.38C1057.29 413.78 1056.79 414.54 1056.55 415.68C1056.32 416.82 1056.44 417.87 1056.94 418.85C1057.5 419.94 1058.3 420.76 1059.34 421.29C1060.4 421.85 1061.35 421.92 1062.19 421.49C1063.97 420.58 1064.28 418.51 1063.12 415.27L1061.04 409.37C1059.95 406.34 1059.77 403.62 1060.5 401.22C1061.17 399 1062.44 397.42 1064.32 396.47C1071.34 392.9 1077.08 394.46 1081.54 401.15L1085.15 399.38L1085.67 400.39C1086.08 401.2 1086.88 402.69 1088.06 404.86L1084.42 406.71Z" />
				</g>
			</g>
		</g>
	</g>
</svg>